<svg width="148" height="120" viewBox="0 0 148 120" fill="none" xmlns="http://www.w3.org/2000/svg">
<path d="M87.5751 119.643C76.1758 119.643 65.0888 116.424 55.5136 110.335C46.1957 104.408 38.7027 96.0464 33.8453 86.1518C33.5164 85.4828 33.555 84.6905 33.9468 84.0557C34.3395 83.4213 35.0298 83.0321 35.7761 83.0265C37.6341 83.0126 65.0672 82.8143 65.0672 82.8143L65.0984 87.1533C65.0984 87.1533 47.2692 87.2821 39.3853 87.3394C43.8622 95.1674 50.1884 101.806 57.8424 106.673C66.7203 112.32 77.0019 115.304 87.5751 115.304C118.168 115.304 143.057 90.4149 143.057 59.8217C143.057 29.2286 118.168 4.33896 87.5751 4.33896C77.7217 4.33896 68.045 6.95449 59.5909 11.9026C51.3829 16.7067 44.5 23.5818 39.6868 31.7851C39.2972 32.4489 38.5852 32.8568 37.8154 32.8568H15.1318C13.9333 32.8568 12.9623 31.8853 12.9623 30.6873C12.9623 29.4893 13.9333 28.5178 15.1318 28.5178H36.5884C41.7383 20.148 48.9115 13.1258 57.3993 8.15812C66.5177 2.82119 76.9524 0 87.5751 0C120.56 0 147.396 26.8361 147.396 59.8217C147.396 92.807 120.56 119.643 87.5751 119.643Z" fill="#FBAD18"/>
<path d="M2.16911 61.2043C0.978494 61.2043 0.00873605 60.2432 5.8125e-05 59.0504C-0.0086198 57.8524 0.955498 56.874 2.15392 56.8653L53.6869 56.4922H53.7034C54.894 56.4922 55.8633 57.4528 55.8725 58.646C55.8807 59.844 54.9166 60.8225 53.7186 60.8311L2.18516 61.2043H2.16911Z" fill="#FBAD18"/>
<path d="M13.5494 87.526C12.3587 87.526 11.389 86.5654 11.3803 85.3721C11.3716 84.1737 12.3357 83.1961 13.5342 83.187L22.0715 83.125H22.0876C23.2782 83.125 24.2475 84.0861 24.2566 85.2789C24.2649 86.4773 23.3012 87.4553 22.1027 87.464L13.5654 87.526H13.5494Z" fill="#FBAD18"/>
<path d="M109.014 79.7155C108.524 79.7155 108.032 79.5506 107.626 79.2126L85.1917 60.5139C84.697 60.1017 84.4111 59.4912 84.4111 58.8473V17.8423C84.4111 16.6443 85.3822 15.6729 86.5806 15.6729C87.779 15.6729 88.7501 16.6443 88.7501 17.8423V57.8311L110.404 75.8794C111.324 76.6466 111.448 78.0146 110.682 78.9349C110.253 79.45 109.636 79.7155 109.014 79.7155Z" fill="#FBAD18"/>
<path d="M135.228 59.8212C135.228 61.1533 134.148 62.2332 132.816 62.2332C131.484 62.2332 130.404 61.1533 130.404 59.8212C130.404 58.4891 131.484 57.4092 132.816 57.4092C134.148 57.4092 135.228 58.4891 135.228 59.8212Z" fill="#FBAD18"/>
<path d="M88.9926 104.815C88.9926 106.147 87.9127 107.227 86.5806 107.227C85.2485 107.227 84.1686 106.147 84.1686 104.815C84.1686 103.483 85.2485 102.403 86.5806 102.403C87.9127 102.403 88.9926 103.483 88.9926 104.815Z" fill="#FBAD18"/>
</svg>
