<svg width="100" height="128" viewBox="0 0 100 128" fill="none" xmlns="http://www.w3.org/2000/svg">
<path d="M97.659 2H15.7519C8.15851 2 2.00003 8.1885 2.00003 15.8189M2.00003 15.8189V117.822C2.00003 122.196 5.52897 125.749 9.88865 125.749H89.7704C94.1232 125.749 97.659 122.203 97.659 117.822V39.2069C97.659 34.8329 94.13 31.2798 89.7704 31.2798H15.9853C2.00003 31.2867 2.00003 20.3723 2.00003 15.8189Z" stroke="#FBAD18" stroke-width="4" stroke-linecap="round" stroke-linejoin="round"/>
<path d="M13.388 16.4248H89.3078" stroke="#FBAD18" stroke-width="4" stroke-linecap="round" stroke-linejoin="round"/>
<path d="M17.9432 80.4226V112.844H80.9566V80.1982" stroke="#FBAD18" stroke-width="4" stroke-linecap="round" stroke-linejoin="round"/>
<path d="M76.2397 80.9495H75.0433C70.3398 80.9495 66.5318 77.123 66.5318 72.3966V51.3477H83.8419L84.7443 72.0257C84.9562 76.8895 81.0868 80.9564 76.2397 80.9564V80.9495Z" stroke="#FBAD18" stroke-width="4" stroke-linecap="round" stroke-linejoin="round"/>
<path d="M22.6601 80.9495H23.8565C28.56 80.9495 32.3679 77.123 32.3679 72.3966V51.3477H15.0579L14.1555 72.0257C13.9436 76.8895 17.813 80.9564 22.6601 80.9564V80.9495Z" stroke="#FBAD18" stroke-width="4" stroke-linecap="round" stroke-linejoin="round"/>
<path d="M32.3679 51.3477H49.8295V72.4015C49.8295 77.1222 45.9164 80.9564 41.0987 80.9564C36.281 80.9564 32.3679 77.1222 32.3679 72.4015V51.3477Z" stroke="#FBAD18" stroke-width="4" stroke-linecap="round" stroke-linejoin="round"/>
<path d="M49.8295 51.3477H66.5319V72.4015C66.5319 77.1222 62.7889 80.9564 58.1807 80.9564C53.5724 80.9564 49.8295 77.1222 49.8295 72.4015V51.3477Z" stroke="#FBAD18" stroke-width="4" stroke-linecap="round" stroke-linejoin="round"/>
<path d="M36.9231 112.842V95.3809H61.9767V112.842" stroke="#FBAD18" stroke-width="4" stroke-linecap="round" stroke-linejoin="round"/>
</svg>
