<svg width="161" height="161" viewBox="0 0 161 161" fill="none" xmlns="http://www.w3.org/2000/svg">
<path d="M58.9232 131.502C47.9521 131.521 37.6955 131.533 24.29 131.533C19.1617 131.533 15.0009 127.373 15.0009 122.244V89.8369" stroke="#FBAD18" stroke-width="4" stroke-linecap="round" stroke-linejoin="round"/>
<path d="M131.933 29.4102H149.43C154.558 29.4102 158.719 33.571 158.719 38.6992V135.82C156.74 130.888 142.455 131.261 139.331 131.261C128.771 131.261 117.604 131.343 96.6106 131.419" stroke="#FBAD18" stroke-width="4" stroke-linecap="round" stroke-linejoin="round"/>
<path d="M15.0009 63.4363V38.6992C15.0009 33.571 19.1617 29.4102 24.29 29.4102H102.042" stroke="#FBAD18" stroke-width="4" stroke-linecap="round" stroke-linejoin="round"/>
<path d="M136.328 131.552V151.149H147.52C153.705 151.149 158.713 146.14 158.713 139.956C158.713 138.122 158.713 129.415 158.713 129.415" stroke="#FBAD18" stroke-width="4" stroke-linecap="round" stroke-linejoin="round"/>
<path d="M15.0009 89.4646L2 77.0201L15.0009 63.4375" stroke="#FBAD18" stroke-width="4" stroke-linecap="round" stroke-linejoin="round"/>
<path d="M15.0009 63.4372L20.1924 58.0117L105.4 139.577L87.2077 158.585L15.0009 89.4643" stroke="#FBAD18" stroke-width="4" stroke-linecap="round" stroke-linejoin="round"/>
<path d="M89.1806 138.92L96.6106 131.161" stroke="#FBAD18" stroke-width="4" stroke-linecap="round" stroke-linejoin="round"/>
<path d="M77.9503 128.164L85.3739 120.411" stroke="#FBAD18" stroke-width="4" stroke-linecap="round" stroke-linejoin="round"/>
<path d="M66.7136 117.413L74.1373 109.654" stroke="#FBAD18" stroke-width="4" stroke-linecap="round" stroke-linejoin="round"/>
<path d="M55.477 106.658L62.9069 98.8994" stroke="#FBAD18" stroke-width="4" stroke-linecap="round" stroke-linejoin="round"/>
<path d="M44.2466 95.9014L51.6703 88.1426" stroke="#FBAD18" stroke-width="4" stroke-linecap="round" stroke-linejoin="round"/>
<path d="M33.0099 85.1455L40.4336 77.3867" stroke="#FBAD18" stroke-width="4" stroke-linecap="round" stroke-linejoin="round"/>
<path d="M21.7733 74.3892L29.2032 66.6367" stroke="#FBAD18" stroke-width="4" stroke-linecap="round" stroke-linejoin="round"/>
<path d="M88.4598 74.7557L70.4318 78.145L72.9422 59.9716L126.628 3.59852C128.683 1.43592 132.23 1.47386 134.545 3.6744L141.69 10.4784C144.004 12.6789 144.207 16.22 142.152 18.3826L88.4534 74.7557H88.4598Z" stroke="#FBAD18" stroke-width="4" stroke-linecap="round" stroke-linejoin="round"/>
<path d="M72.9358 59.9717L88.4598 74.7558" stroke="#FBAD18" stroke-width="4" stroke-linecap="round" stroke-linejoin="round"/>
<path d="M118.913 11.6992L134.437 26.4833" stroke="#FBAD18" stroke-width="4" stroke-linecap="round" stroke-linejoin="round"/>
<path d="M70.4254 78.1455H120.703" stroke="#FBAD18" stroke-width="4" stroke-linecap="round" stroke-linejoin="round"/>
<path d="M129.107 78.1455H133.312" stroke="#FBAD18" stroke-width="4" stroke-linecap="round" stroke-linejoin="round"/>
<path d="M142.563 78.1455H146.768" stroke="#FBAD18" stroke-width="4" stroke-linecap="round" stroke-linejoin="round"/>
</svg>
