<svg width="154" height="149" viewBox="0 0 154 149" fill="none" xmlns="http://www.w3.org/2000/svg">
<path d="M138.364 58.2678H47.0824C46.5685 58.2678 46.0845 58.5188 45.7858 58.943L36.0762 72.7934C35.4428 73.6956 34.0984 73.6896 33.471 72.7814L23.9765 58.955C23.6837 58.5247 23.1938 58.2678 22.668 58.2678H17.129C10.879 58.2678 5.81213 53.2009 5.81213 46.9509V13.3169C5.81213 7.06691 10.879 2 17.129 2H138.364C144.614 2 149.681 7.06691 149.681 13.3169V46.9569C149.681 53.2069 144.614 58.2738 138.364 58.2738V58.2678Z" stroke="#FBAD18" stroke-width="4" stroke-linecap="round" stroke-linejoin="round"/>
<path d="M34.4807 12.8379L38.5618 25.4036H51.7787L41.0892 33.1713L45.1703 45.7429L34.4807 37.9753L23.7912 45.7429L27.8722 33.1713L17.1827 25.4036H30.3997L34.4807 12.8379Z" stroke="#FBAD18" stroke-width="4" stroke-linecap="round" stroke-linejoin="round"/>
<path d="M78.2128 12.8379L82.2998 25.4036H95.5108L84.8213 33.1713L88.9023 45.7429L78.2128 37.9753L67.5233 45.7429L71.6043 33.1713L60.9148 25.4036H74.1318L78.2128 12.8379Z" stroke="#FBAD18" stroke-width="4" stroke-linecap="round" stroke-linejoin="round"/>
<path d="M121.945 12.8379L126.032 25.4036H139.243L128.553 33.1713L132.64 45.7429L121.945 37.9753L111.255 45.7429L115.342 33.1713L104.653 25.4036H117.864L121.945 12.8379Z" stroke="#FBAD18" stroke-width="4" stroke-linecap="round" stroke-linejoin="round"/>
<path d="M66.9616 113.848C66.9616 123.211 63.0001 131.654 56.6605 137.581C50.8527 143.013 43.0551 146.335 34.4808 146.335C25.9065 146.335 18.109 143.013 12.3011 137.581C5.96151 131.654 2 123.211 2 113.848C2 95.9107 16.5435 81.3672 34.4808 81.3672C52.4182 81.3672 66.9616 95.9107 66.9616 113.848Z" stroke="#FBAD18" stroke-width="4" stroke-linecap="round" stroke-linejoin="round"/>
<path d="M56.6605 137.582C50.8527 143.013 43.0552 146.335 34.4808 146.335C25.9065 146.335 18.109 143.013 12.3011 137.582C14.01 126.88 23.2894 118.694 34.4808 118.694C45.6723 118.694 54.9457 126.88 56.6605 137.582Z" stroke="#FBAD18" stroke-width="4" stroke-linecap="round" stroke-linejoin="round"/>
<path d="M34.4808 118.694C40.9422 118.694 46.1801 113.456 46.1801 106.994C46.1801 100.533 40.9422 95.2949 34.4808 95.2949C28.0195 95.2949 22.7815 100.533 22.7815 106.994C22.7815 113.456 28.0195 118.694 34.4808 118.694Z" stroke="#FBAD18" stroke-width="4" stroke-linecap="round" stroke-linejoin="round"/>
<path d="M145.905 88.3105H83.7934C80.7112 88.3105 78.2126 90.8091 78.2126 93.8913C78.2126 96.9735 80.7112 99.4721 83.7934 99.4721H145.905C148.987 99.4721 151.486 96.9735 151.486 93.8913C151.486 90.8091 148.987 88.3105 145.905 88.3105Z" stroke="#FBAD18" stroke-width="4" stroke-linecap="round" stroke-linejoin="round"/>
<path d="M145.905 111.178H83.7934C80.7112 111.178 78.2126 113.676 78.2126 116.759C78.2126 119.841 80.7112 122.339 83.7934 122.339H145.905C148.987 122.339 151.486 119.841 151.486 116.759C151.486 113.676 148.987 111.178 145.905 111.178Z" stroke="#FBAD18" stroke-width="4" stroke-linecap="round" stroke-linejoin="round"/>
<path d="M145.905 134.038H83.7934C80.7112 134.038 78.2126 136.537 78.2126 139.619C78.2126 142.701 80.7112 145.2 83.7934 145.2H145.905C148.987 145.2 151.486 142.701 151.486 139.619C151.486 136.537 148.987 134.038 145.905 134.038Z" stroke="#FBAD18" stroke-width="4" stroke-linecap="round" stroke-linejoin="round"/>
</svg>
