<svg width="148" height="137" viewBox="0 0 148 137" fill="none" xmlns="http://www.w3.org/2000/svg">
<path d="M19.1275 134.07H2.16948C0.97106 134.07 0 133.099 0 131.901V70.1421C0 68.9442 0.97106 67.9727 2.16948 67.9727H19.1275C20.3259 67.9727 21.2969 68.9442 21.2969 70.1421V131.901C21.2969 133.099 20.3259 134.07 19.1275 134.07ZM4.33896 129.731H16.958V72.3116H4.33896V129.731Z" fill="#FBAD18"/>
<path d="M60.1975 136.994C53.7728 136.994 47.3715 135.806 41.3525 133.47L18.3421 124.537C17.2252 124.104 16.6716 122.847 17.1051 121.729C17.5385 120.613 18.7951 120.06 19.9124 120.492L42.9228 129.425C50.6444 132.422 59.0559 133.359 67.2461 132.131L95.5982 127.884C104.937 126.484 113.572 122.391 120.568 116.047L143.109 95.6065C143.487 94.8407 144.401 92.4256 142.245 90.2696C139.546 87.5699 138.136 87.6055 134.314 90.4714C130.077 93.6497 106.879 108.511 105.893 109.141C105.489 109.4 105.01 109.518 104.531 109.475L47.5299 104.409C46.3362 104.303 45.4545 103.249 45.5608 102.056C45.6671 100.862 46.718 99.9776 47.9134 100.087L104.176 105.088C107.979 102.648 127.976 89.8014 131.711 87.0002C136.308 83.5533 140.38 82.2681 145.314 87.202C149.281 91.1691 147.942 96.0725 146.679 98.1119C146.573 98.2841 146.443 98.4407 146.292 98.577L123.483 119.262C115.85 126.183 106.43 130.648 96.2412 132.175L67.8896 136.422C65.3378 136.805 62.7653 136.994 60.1975 136.994Z" fill="#FBAD18"/>
<path d="M96.0416 108.713C94.8605 108.713 93.8934 107.765 93.8734 106.58C93.6999 96.4004 89.4047 95.6072 74.5342 94.427C73.1319 94.3159 71.6614 94.1992 70.1224 94.0647C53.1084 92.576 45.6133 87.7497 39.5908 83.872L39.1591 83.5943C34.8262 80.8087 23.3596 81.0647 19.3062 81.3988C18.113 81.4904 17.0638 80.6087 16.9657 79.415C16.8668 78.2214 17.7546 77.1735 18.9482 77.0742C19.1096 77.0612 22.9535 76.7501 27.5884 76.9097C34.0391 77.1336 38.7217 78.1546 41.5061 79.9444L41.9399 80.2243C47.5606 83.843 54.5555 88.3468 70.5003 89.7422C72.0272 89.8759 73.4864 89.9917 74.8774 90.1015C88.7791 91.2044 97.9633 91.9334 98.2115 106.506C98.2319 107.704 97.2778 108.692 96.0794 108.712C96.0672 108.713 96.0542 108.713 96.0416 108.713Z" fill="#FBAD18"/>
<path d="M112.89 104.228C111.692 104.228 110.721 103.257 110.721 102.058V55.8366L72.9709 19.966L35.2211 55.8366V79.0332C35.2211 80.2311 34.25 81.2026 33.0516 81.2026C31.8532 81.2026 30.8821 80.2311 30.8821 79.0332V54.9055C30.8821 54.3111 31.1264 53.7422 31.5573 53.333L71.4766 15.4005C72.3136 14.6048 73.6283 14.6048 74.4653 15.4005L114.385 53.333C114.815 53.7422 115.06 54.3111 115.06 54.9055V102.058C115.06 103.257 114.089 104.228 112.89 104.228Z" fill="#FBAD18"/>
<path d="M129.829 59.2106C129.287 59.2106 128.744 59.0084 128.323 58.6023L72.9705 5.18403L18.3881 57.8334C17.5251 58.6657 16.1522 58.6401 15.3204 57.7779C14.4887 56.9158 14.513 55.542 15.3755 54.7103L71.4644 0.60816C72.3058 -0.202792 73.6378 -0.202792 74.4774 0.608594L131.336 55.48C132.198 56.3122 132.223 57.6855 131.391 58.5476C130.965 58.9889 130.398 59.2106 129.829 59.2106Z" fill="#FBAD18"/>
<path d="M84.372 95.4355C83.1736 95.4355 82.2025 94.4644 82.2025 93.266V64.9552H63.6075V90.6783C63.6075 91.8767 62.636 92.8478 61.438 92.8478C60.2396 92.8478 59.2685 91.8767 59.2685 90.6783V62.7857C59.2685 61.5877 60.2396 60.6162 61.438 60.6162H84.372C85.5704 60.6162 86.5415 61.5877 86.5415 62.7857V93.266C86.5415 94.4644 85.5704 95.4355 84.372 95.4355Z" fill="#FBAD18"/>
</svg>
