<svg width="151" height="153" viewBox="0 0 151 153" fill="none" xmlns="http://www.w3.org/2000/svg">
<path d="M106.641 152.302H2.16948C0.97106 152.302 0 151.331 0 150.132V128.876C0 108.955 16.2069 92.748 36.1279 92.748H39.672C40.1502 92.748 40.6153 92.906 40.9945 93.198L53.7072 102.976L66.4204 93.198C66.7996 92.906 67.2648 92.748 67.7434 92.748H72.6828C92.6039 92.748 108.811 108.955 108.811 128.876V150.132C108.811 151.331 107.84 152.302 106.641 152.302ZM4.33896 147.963H104.472V128.876C104.472 111.347 90.2114 97.087 72.6828 97.087H68.481L55.0302 107.433C54.2496 108.033 53.1649 108.033 52.3843 107.433L38.9339 97.087H36.1279C18.5994 97.087 4.33896 111.347 4.33896 128.876V147.963Z" fill="#FBAD18"/>
<path d="M53.7077 107.883C53.2408 107.883 52.7748 107.733 52.3847 107.433L38.349 96.637C37.8153 96.2265 37.5025 95.5913 37.5025 94.9174V79.8994C37.5025 79.1215 37.919 78.4034 38.5938 78.0168C39.2689 77.6297 40.0985 77.6341 40.7697 78.028C43.6283 79.7051 46.905 80.5915 50.2456 80.5915H58.5656C61.4471 80.5915 64.2153 79.9554 66.7944 78.701C67.4665 78.3734 68.2601 78.416 68.894 78.8125C69.528 79.2091 69.9128 79.9042 69.9128 80.6518V94.9174C69.9128 95.5913 69.6004 96.2265 69.0663 96.637L55.0302 107.433C54.6401 107.733 54.1741 107.883 53.7077 107.883ZM41.8415 93.8492L53.7077 102.976L65.5739 93.8492V83.8518C63.3211 84.5686 60.9754 84.9305 58.5656 84.9305H50.2456C47.3563 84.9305 44.5047 84.3911 41.8415 83.3533V93.8492Z" fill="#FBAD18"/>
<path d="M58.5656 84.9305H50.2457C46.1341 84.9305 42.098 83.8375 38.5743 81.7704C32.0021 77.9278 27.7429 71.0432 27.1767 63.5173C23.1042 62.5627 20.0634 58.9006 20.0634 54.5412V54.3308C20.0634 51.8659 21.0215 49.5501 22.7605 47.8107C24.1316 46.44 25.8598 45.5544 27.7369 45.2403C28.1304 44.8411 28.6771 44.5938 29.282 44.5938C30.48 44.5938 31.4515 45.5652 31.4515 46.7632V47.2817C31.4515 48.4802 30.48 49.4512 29.282 49.4512C27.9755 49.4512 26.7493 49.958 25.829 50.8787C24.9092 51.7986 24.4024 53.0248 24.4024 54.3308V54.5412C24.4024 57.2318 26.5914 59.4209 29.282 59.4209C30.48 59.4209 31.4515 60.3923 31.4515 61.5903V61.8008C31.4515 68.4494 35.0207 74.6667 40.7668 78.0263C43.6283 79.7051 46.9051 80.5915 50.2457 80.5915H58.5656C61.4471 80.5915 64.2154 79.9554 66.7945 78.701C73.3107 75.5227 77.3599 69.0468 77.3599 61.8008V61.5903C77.3599 60.3923 78.3313 59.4209 79.5293 59.4209C82.2199 59.4209 84.4089 57.2318 84.4089 54.5412V54.3308C84.4089 53.0244 83.9021 51.7986 82.9818 50.8787C82.0616 49.958 80.8354 49.4512 79.5293 49.4512C78.3313 49.4512 77.3599 48.4802 77.3599 47.2817C77.3599 46.0837 78.3313 45.1123 79.5293 45.1123C81.9943 45.1123 84.31 46.0703 86.0499 47.8102C87.7899 49.5497 88.7479 51.8654 88.7479 54.3308V54.5412C88.7479 58.8993 85.7076 62.561 81.6372 63.5168C81.0423 71.7318 76.1974 78.9423 68.6945 82.6017C65.5171 84.1473 62.1101 84.9305 58.5656 84.9305Z" fill="#FBAD18"/>
<path d="M36.0681 52.0372C35.6407 52.0372 35.2146 51.9109 34.848 51.6618C32.0125 49.7336 29.1205 49.4451 29.0915 49.4429C27.903 49.3318 27.0209 48.2809 27.1263 47.0916C27.2305 45.9023 28.2749 45.0185 29.4611 45.1196C29.574 45.1287 31.4701 45.2992 33.8986 46.275V40.6925C33.8986 37.7008 35.189 34.854 37.4383 32.8824C39.6881 30.9103 42.6815 30.003 45.6446 30.3953L54.6892 31.5894C55.8768 31.746 56.7129 32.8364 56.5562 34.024C56.3992 35.212 55.3057 36.0472 54.1212 35.891L45.0771 34.6969C43.3502 34.4683 41.6085 34.9968 40.2986 36.1453C38.9886 37.2934 38.2376 38.9509 38.2376 40.6925V49.8677C38.2376 50.6712 37.7937 51.4093 37.083 51.7851C36.7645 51.9538 36.4161 52.0372 36.0681 52.0372Z" fill="#FBAD18"/>
<path d="M24.2947 51.5142C23.0963 51.5142 22.1252 50.5427 22.1252 49.3448V30.403C22.1252 25.0691 26.4651 20.7293 31.799 20.7293H33.3597C33.4738 16.5995 36.8691 13.2754 41.0262 13.2754H53.7073C54.9057 13.2754 55.8767 14.2469 55.8767 15.4449C55.8767 16.6429 54.9057 17.6144 53.7073 17.6144H41.0262C39.1895 17.6144 37.6956 19.1083 37.6956 20.9449C37.6956 23.2186 35.8459 25.0683 33.5723 25.0683H31.799C28.8576 25.0683 26.4642 27.4616 26.4642 30.403V49.3448C26.4642 50.5427 25.4931 51.5142 24.2947 51.5142Z" fill="#FBAD18"/>
<path d="M72.7423 52.037C72.3943 52.037 72.0463 51.9537 71.7274 51.7849C71.0167 51.4092 70.5728 50.6711 70.5728 49.8675V40.6924C70.5728 38.9503 69.8218 37.2932 68.5118 36.1447C67.2019 34.997 65.465 34.4694 63.7333 34.6968L54.6892 35.8909C53.5007 36.0471 52.4112 35.2118 52.2542 34.0238C52.0975 32.8362 52.9337 31.7459 54.1212 31.5892L63.1658 30.3951C66.1336 30.0033 69.1228 30.9102 71.3721 32.8822C73.6214 34.8539 74.9118 37.7006 74.9118 40.6924V46.2749C77.3403 45.299 79.2369 45.1285 79.3497 45.1194C80.5437 45.0205 81.592 45.9078 81.691 47.1014C81.7903 48.2929 80.9074 49.3386 79.7181 49.4428C79.6443 49.4497 76.7754 49.7486 73.9624 51.6617C73.5958 51.9108 73.1697 52.037 72.7423 52.037Z" fill="#FBAD18"/>
<path d="M84.5156 51.5142C83.3172 51.5142 82.3461 50.5427 82.3461 49.3448V30.403C82.3461 27.4616 79.9528 25.0683 77.0114 25.0683H75.0476C72.8789 25.0683 71.1147 23.304 71.1147 21.1359C71.1147 19.1942 69.5353 17.6144 67.5937 17.6144H55.1031C53.9047 17.6144 52.9336 16.6429 52.9336 15.4449C52.9336 14.2469 53.9047 13.2754 55.1031 13.2754H67.5937C71.7916 13.2754 75.2315 16.5834 75.4437 20.7293H77.0114C82.3452 20.7293 86.6851 25.0691 86.6851 30.403V49.3448C86.6851 50.5427 85.714 51.5142 84.5156 51.5142Z" fill="#FBAD18"/>
<path d="M43.3228 113.159C42.0688 113.159 40.8235 112.741 39.7939 111.923L31.7655 105.545C28.7404 103.142 27.4951 99.1945 28.5937 95.4894L28.828 94.6993C29.1686 93.5512 30.3753 92.8965 31.5251 93.2362C32.6737 93.5768 33.3289 94.7839 32.9882 95.9333L32.7539 96.7234C32.1608 98.722 32.8325 100.851 34.4648 102.148L42.4927 108.525C42.9188 108.864 43.502 108.912 43.9767 108.647L52.652 103.818C53.7003 103.234 55.0206 103.611 55.6029 104.658C56.1861 105.704 55.8095 107.025 54.7625 107.608L46.0867 112.438C45.2198 112.921 44.2691 113.159 43.3228 113.159Z" fill="#FBAD18"/>
<path d="M64.0921 113.159C63.1462 113.159 62.1955 112.921 61.3286 112.439L52.6524 107.609C51.6054 107.025 51.2288 105.704 51.8115 104.658C52.3947 103.611 53.7155 103.234 54.7625 103.817L63.4386 108.647C63.9142 108.913 64.4969 108.864 64.923 108.525L72.9505 102.148C74.5828 100.851 75.2545 98.722 74.6614 96.7234L74.4271 95.9333C74.0865 94.7839 74.7416 93.5768 75.8902 93.2362C77.0404 92.8965 78.2467 93.5512 78.5872 94.6993L78.8216 95.4894C79.9202 99.194 78.6749 103.141 75.6498 105.545L67.6218 111.923C66.5918 112.741 65.3465 113.159 64.0921 113.159Z" fill="#FBAD18"/>
<path d="M110.565 87.9174H102.717C99.2659 87.9174 96.4577 85.1092 96.4577 81.658V78.0631C96.4577 77.2552 95.9652 76.5358 95.2324 76.2733C94.0965 75.8637 92.9792 75.3925 91.9083 74.8718C91.1902 74.5212 90.3224 74.6753 89.7436 75.2541L87.1819 77.8154C84.7417 80.2561 80.7693 80.2565 78.3282 77.8154L75.0193 74.5065C74.1719 73.6595 74.1719 72.2858 75.0193 71.4384C75.8659 70.5914 77.2404 70.5914 78.087 71.4384L81.3959 74.7473C82.1456 75.4971 83.3645 75.4962 84.1142 74.7473L86.6755 72.186C88.5638 70.2973 91.4297 69.8083 93.8101 70.9715C94.7382 71.4232 95.7119 71.8341 96.6998 72.1899C99.1487 73.0673 100.797 75.4281 100.797 78.0631V81.658C100.797 82.7171 101.658 83.5784 102.717 83.5784H110.565C111.624 83.5784 112.486 82.7171 112.486 81.658V78.0631C112.486 75.4281 114.134 73.0673 116.586 72.1886C117.57 71.8341 118.544 71.4232 119.476 70.9698C121.851 69.8091 124.718 70.2973 126.607 72.186L129.168 74.7473C129.917 75.4971 131.136 75.4962 131.886 74.7473L137.43 69.2034C138.179 68.4541 138.179 67.2348 137.43 66.4855L134.654 63.7099C132.816 61.8714 132.303 59.0602 133.377 56.7146C133.781 55.8286 134.141 54.9204 134.445 54.021C135.307 51.4965 137.684 49.803 140.364 49.803H144.34C145.399 49.803 146.261 48.9418 146.261 47.8831V40.0347C146.261 38.9756 145.399 38.1143 144.34 38.1143H139.923C137.312 38.1143 135.016 36.5158 134.075 34.0422C133.764 33.2386 133.42 32.4481 133.057 31.7026C131.901 29.3305 132.393 26.469 134.28 24.5815L137.43 21.4314C138.179 20.6825 138.179 19.4633 137.43 18.7135L131.886 13.1701C131.137 12.4207 129.918 12.4211 129.168 13.1701L125.808 16.5306C123.969 18.3686 121.165 18.8858 118.829 17.8197C118.113 17.493 117.355 17.1849 116.579 16.9037C114.134 16.0273 112.486 13.6664 112.486 11.0314V6.25939C112.486 5.20025 111.624 4.33896 110.565 4.33896H102.717C101.658 4.33896 100.797 5.20025 100.797 6.25939V11.0314C100.797 13.6651 99.1509 16.0255 96.7016 16.9055C95.9435 17.1788 95.1868 17.4869 94.4544 17.8206C92.1201 18.8871 89.3141 18.3694 87.4747 16.5306L84.1142 13.1701C83.3645 12.4207 82.1456 12.4211 81.3959 13.1701L75.852 18.7139C75.4888 19.0771 75.2888 19.56 75.2888 20.0729C75.2888 21.2709 74.3177 22.2424 73.1193 22.2424C71.9209 22.2424 70.9498 21.2709 70.9498 20.0729C70.9498 18.4011 71.6011 16.8291 72.7839 15.6459L78.3282 10.1015C80.7689 7.66131 84.7412 7.66087 87.1819 10.1015L90.5424 13.4625C91.1073 14.027 91.9556 14.1923 92.6533 13.873C93.4946 13.4898 94.3616 13.1366 95.2324 12.8229C95.9661 12.5591 96.4577 11.8397 96.4577 11.0314V6.25939C96.4577 2.80774 99.2659 0 102.717 0H110.565C114.017 0 116.825 2.80774 116.825 6.25939V11.0314C116.825 11.8397 117.317 12.5591 118.05 12.8216C118.941 13.1445 119.807 13.4968 120.631 13.8721C121.329 14.191 122.176 14.0261 122.74 13.4625L126.1 10.1015C128.541 7.66131 132.513 7.66087 134.954 10.1015L140.498 15.6459C142.939 18.087 142.939 22.0584 140.498 24.4995L137.348 27.65C136.769 28.2284 136.612 29.0932 136.957 29.8013C137.374 30.6561 137.767 31.5607 138.126 32.4884C138.425 33.2742 139.129 33.7754 139.923 33.7754H144.34C147.792 33.7754 150.6 36.5831 150.6 40.0347V47.8831C150.6 51.3343 147.792 54.142 144.34 54.142H140.364C139.541 54.142 138.813 54.6549 138.553 55.4181C138.203 56.4499 137.789 57.4934 137.324 58.5166C136.999 59.2273 137.16 60.079 137.722 60.6418L140.498 63.4174C142.939 65.8585 142.939 69.8304 140.498 72.2715L134.954 77.8154C132.514 80.2561 128.541 80.2565 126.1 77.8154L123.538 75.2541C122.96 74.6753 122.092 74.5217 121.378 74.8701C120.303 75.3925 119.186 75.8637 118.054 76.272C117.317 76.5358 116.825 77.2548 116.825 78.0631V81.658C116.825 85.1092 114.017 87.9174 110.565 87.9174ZM106.46 63.9906C95.74 63.9906 87.0187 55.2675 87.0187 44.5455C87.0187 33.8257 95.74 25.1044 106.46 25.1044C117.182 25.1044 125.905 33.8257 125.905 44.5455C125.905 55.2675 117.182 63.9906 106.46 63.9906ZM106.46 29.4433C98.1326 29.4433 91.3577 36.2182 91.3577 44.5455C91.3577 52.8746 98.1326 59.6516 106.46 59.6516C114.789 59.6516 121.566 52.8746 121.566 44.5455C121.566 36.2182 114.789 29.4433 106.46 29.4433Z" fill="#FBAD18"/>
<path d="M57.8605 117.122H49.5549C48.7426 117.122 47.9985 116.668 47.6262 115.946L44.9465 110.745C44.398 109.68 44.8167 108.371 45.8819 107.822C46.9471 107.274 48.2549 107.692 48.8042 108.758L50.8778 112.783H56.5376L58.6111 108.758C59.16 107.692 60.4695 107.275 61.5339 107.822C62.5987 108.371 63.0178 109.68 62.4689 110.745L59.7892 115.946C59.4173 116.668 58.6728 117.122 57.8605 117.122Z" fill="#FBAD18"/>
<path d="M44.8961 152.301C44.8011 152.301 44.7056 152.294 44.6084 152.282C43.4208 152.124 42.5856 151.034 42.7427 149.846L47.404 114.668C47.5619 113.48 48.6471 112.646 49.8403 112.802C51.0279 112.959 51.8632 114.05 51.7057 115.238L47.0443 150.416C46.8994 151.507 45.9678 152.301 44.8961 152.301Z" fill="#FBAD18"/>
<path d="M62.0076 152.301C60.9359 152.301 60.0043 151.508 59.8594 150.416L55.1981 115.238C55.0406 114.05 55.8758 112.96 57.0634 112.802C58.2614 112.645 59.3418 113.48 59.4997 114.668L64.1611 149.846C64.3181 151.034 63.4829 152.125 62.2953 152.282C62.1981 152.295 62.1022 152.301 62.0076 152.301Z" fill="#FBAD18"/>
<path d="M18.3755 152.301C17.1771 152.301 16.2061 151.33 16.2061 150.132V132.542C16.2061 131.344 17.1771 130.373 18.3755 130.373C19.574 130.373 20.545 131.344 20.545 132.542V150.132C20.545 151.33 19.574 152.301 18.3755 152.301Z" fill="#FBAD18"/>
<path d="M89.1886 152.301C87.9902 152.301 87.0192 151.33 87.0192 150.132V132.542C87.0192 131.344 87.9902 130.373 89.1886 130.373C90.3871 130.373 91.3581 131.344 91.3581 132.542V150.132C91.3581 151.33 90.3871 152.301 89.1886 152.301Z" fill="#FBAD18"/>
</svg>
