<svg width="123" height="147" viewBox="0 0 123 147" fill="none" xmlns="http://www.w3.org/2000/svg">
<path d="M61.1703 90.8229C81.5005 90.8229 97.9814 74.2201 97.9814 53.7396C97.9814 33.259 81.5005 16.6562 61.1703 16.6562C40.84 16.6562 24.3591 33.259 24.3591 53.7396C24.3591 74.2201 40.84 90.8229 61.1703 90.8229Z" stroke="#FBAD18" stroke-width="4" stroke-linecap="round" stroke-linejoin="round"/>
<path d="M61.1702 106.444C90.0641 106.444 113.487 82.8475 113.487 53.74C113.487 24.6325 90.0641 1.03613 61.1702 1.03613C32.2763 1.03613 8.85315 24.6325 8.85315 53.74C8.85315 82.8475 32.2763 106.444 61.1702 106.444Z" stroke="#FBAD18" stroke-width="4" stroke-linecap="round" stroke-linejoin="round"/>
<path d="M41.1093 55.8627L52.3068 69.3909L84.7788 42.3242" stroke="#FBAD18" stroke-width="4" stroke-linecap="round" stroke-linejoin="round"/>
<path d="M98.8246 90.6777L121.343 129.325L100.953 125.658L94.1769 145.391L70.9489 105.511" stroke="#FBAD18" stroke-width="4" stroke-linecap="round" stroke-linejoin="round"/>
<path d="M23.5467 90.6777L1.0282 129.325L21.4286 125.658L28.1944 145.391L51.4327 105.511" stroke="#FBAD18" stroke-width="4" stroke-linecap="round" stroke-linejoin="round"/>
</svg>
