<svg width="152" height="146" viewBox="0 0 152 146" fill="none" xmlns="http://www.w3.org/2000/svg">
<path d="M135.948 145.137C135.393 145.137 134.847 144.924 134.434 144.522L114.869 125.46H49.9853C41.6505 125.46 34.8701 118.679 34.8701 110.344V61.1488C34.8701 52.8141 41.6505 46.0332 49.9853 46.0332H135.947C144.282 46.0332 151.063 52.8141 151.063 61.1488V110.344C151.063 117.942 145.428 124.249 138.117 125.304V142.968C138.117 143.84 137.595 144.627 136.791 144.967C136.519 145.081 136.232 145.137 135.948 145.137ZM49.9853 50.3722C44.0435 50.3722 39.209 55.2066 39.209 61.1488V110.344C39.209 116.286 44.0435 121.121 49.9853 121.121H115.751C116.317 121.121 116.86 121.341 117.266 121.736L133.778 137.825V123.29C133.778 122.092 134.749 121.121 135.947 121.121C141.89 121.121 146.724 116.286 146.724 110.344V61.1488C146.724 55.2066 141.89 50.3722 135.947 50.3722H49.9853Z" fill="#FBAD18"/>
<path d="M53.6469 97.7555H53.0065C48.6996 97.7555 45.1959 94.2518 45.1959 89.9445V82.2988C45.1959 77.992 48.6996 74.4883 53.0065 74.4883H53.6469C57.9533 74.4883 61.4575 77.992 61.4575 82.2988V89.9445C61.4575 94.2518 57.9533 97.7555 53.6469 97.7555ZM53.0065 78.8272C51.0921 78.8272 49.5349 80.3845 49.5349 82.2988V89.9445C49.5349 91.8589 51.0921 93.4166 53.0065 93.4166H53.6469C55.5613 93.4166 57.1185 91.8589 57.1185 89.9445V82.2988C57.1185 80.3845 55.5613 78.8272 53.6469 78.8272H53.0065Z" fill="#FBAD18"/>
<path d="M93.2869 97.7555H92.6469C88.34 97.7555 84.8363 94.2518 84.8363 89.9445V82.2988C84.8363 77.992 88.34 74.4883 92.6469 74.4883H93.2869C97.5933 74.4883 101.097 77.992 101.097 82.2988V89.9445C101.097 94.2518 97.5933 97.7555 93.2869 97.7555ZM92.6469 78.8272C90.7325 78.8272 89.1748 80.3845 89.1748 82.2988V89.9445C89.1748 91.8589 90.7325 93.4166 92.6469 93.4166H93.2869C95.2012 93.4166 96.7585 91.8589 96.7585 89.9445V82.2988C96.7585 80.3845 95.2012 78.8272 93.2869 78.8272H92.6469Z" fill="#FBAD18"/>
<path d="M92.9666 78.8266C91.7682 78.8266 90.7971 77.8551 90.7971 76.6571C90.7971 68.5775 84.224 62.004 76.144 62.004H70.1489C62.0693 62.004 55.4962 68.5775 55.4962 76.6571C55.4962 77.8551 54.5247 78.8266 53.3267 78.8266C52.1283 78.8266 51.1572 77.8551 51.1572 76.6571C51.1572 66.185 59.6768 57.665 70.1489 57.665H76.144C86.6161 57.665 95.1361 66.185 95.1361 76.6571C95.1361 77.8551 94.165 78.8266 92.9666 78.8266Z" fill="#FBAD18"/>
<path d="M83.6899 108.498C82.8959 108.498 82.1305 108.06 81.7495 107.302C81.2115 106.231 81.6432 104.927 82.714 104.389C86.4837 102.495 89.2563 99.076 90.3207 95.0104C90.6236 93.8519 91.8077 93.1564 92.9692 93.4614C94.1281 93.7647 94.8215 94.9501 94.5182 96.1095C93.138 101.381 89.5458 105.812 84.6622 108.266C84.3498 108.423 84.0175 108.498 83.6899 108.498Z" fill="#FBAD18"/>
<path d="M78.1638 110.713C73.8487 110.713 70.4691 108.27 70.4691 105.151C70.4691 102.032 73.8487 99.5889 78.1638 99.5889C82.4781 99.5889 85.8577 102.032 85.8577 105.151C85.8577 108.27 82.4781 110.713 78.1638 110.713ZM78.1638 103.928C75.9978 103.928 74.8701 104.862 74.8072 105.159C74.8701 105.44 75.9991 106.374 78.1638 106.374C80.3099 106.374 81.4376 105.456 81.5174 105.151C81.438 104.846 80.3108 103.928 78.1638 103.928Z" fill="#FBAD18"/>
<path d="M133.65 77.3946H110.958C109.759 77.3946 108.788 76.4231 108.788 75.2251C108.788 74.0271 109.759 73.0557 110.958 73.0557H133.65C134.848 73.0557 135.819 74.0271 135.819 75.2251C135.819 76.4231 134.848 77.3946 133.65 77.3946Z" fill="#FBAD18"/>
<path d="M133.65 87.5626H110.958C109.759 87.5626 108.788 86.5915 108.788 85.3931C108.788 84.1947 109.759 83.2236 110.958 83.2236H133.65C134.848 83.2236 135.819 84.1947 135.819 85.3931C135.819 86.5915 134.848 87.5626 133.65 87.5626Z" fill="#FBAD18"/>
<path d="M124.441 97.7296H110.958C109.76 97.7296 108.789 96.7585 108.789 95.5601C108.789 94.3617 109.76 93.3906 110.958 93.3906H124.441C125.64 93.3906 126.611 94.3617 126.611 95.5601C126.611 96.7585 125.64 97.7296 124.441 97.7296Z" fill="#FBAD18"/>
<path d="M37.0396 91.7483H10.916C4.89695 91.7483 0 86.8514 0 80.8324V38.7197C0 35.557 1.36894 32.554 3.75581 30.4796L35.7687 2.66033C39.8512 -0.88721 46.0078 -0.886342 50.0886 2.66033L82.1014 30.48C84.4883 32.554 85.8577 35.557 85.8577 38.7197V48.203C85.8577 49.4009 84.8862 50.3724 83.6882 50.3724C82.4898 50.3724 81.5187 49.4009 81.5187 48.203V38.7197C81.5187 36.814 80.6939 35.0047 79.2559 33.7551L47.2431 5.93538C44.7842 3.79844 41.0752 3.798 38.6146 5.93538L6.60173 33.7551C5.16337 35.0047 4.33896 36.814 4.33896 38.7197V80.8324C4.33896 84.4589 7.28946 87.4094 10.916 87.4094H37.0396C38.238 87.4094 39.209 88.3804 39.209 89.5789C39.209 90.7773 38.238 91.7483 37.0396 91.7483Z" fill="#FBAD18"/>
</svg>
