<svg width="193" height="152" viewBox="0 0 193 152" fill="none" xmlns="http://www.w3.org/2000/svg">
<path d="M150.403 90.2515L167.496 70.9497L137.314 17.0459L90.7686 19.9569L71.0693 39.6889C67.7797 42.9839 67.4653 48.2145 70.3331 51.8783C73.408 55.8032 79.0441 56.5636 83.0392 53.5911L99.8477 41.0868L159.82 104.146C163.125 107.618 163.209 113.048 160.027 116.627C156.553 120.529 150.541 120.752 146.784 117.127L107.845 79.5598" stroke="#FBAD18" stroke-width="4" stroke-linecap="round" stroke-linejoin="round"/>
<path d="M138.148 108.701L142.545 112.951C146.264 116.544 146.318 122.509 142.668 126.171L142.114 126.728C138.556 130.298 132.803 130.352 129.184 126.851L86.9603 86.0762" stroke="#FBAD18" stroke-width="4" stroke-linecap="round" stroke-linejoin="round"/>
<path d="M111.467 109.972L120.65 119.406C124.167 123.018 124.101 128.893 120.503 132.422L117.991 134.889C114.444 138.372 108.814 138.221 105.445 134.562L103.775 132.756" stroke="#FBAD18" stroke-width="4" stroke-linecap="round" stroke-linejoin="round"/>
<path d="M82.5353 28.5508C82.5353 28.5508 71.8734 28.5508 52.4452 28.5508" stroke="#FBAD18" stroke-width="4" stroke-linecap="round" stroke-linejoin="round"/>
<path d="M2.80259 63.0414L28.5763 18.2705C30.2406 15.3811 33.9128 14.4154 36.7528 16.1151L48.6319 23.2228C51.4719 24.9224 52.4109 28.6385 50.7161 31.5048L24.4232 76.0593C22.736 78.9178 19.0715 79.8527 16.2468 78.1375L4.89442 71.2462C2.10023 69.5465 1.16883 65.8922 2.81023 63.0414H2.80259Z" stroke="#FBAD18" stroke-width="4" stroke-linecap="round" stroke-linejoin="round"/>
<path d="M23.2401 77.2256L36.5151 93.1556" stroke="#FBAD18" stroke-width="4" stroke-linecap="round" stroke-linejoin="round"/>
<path d="M56.0037 85.6807L55.9979 85.6757C52.0439 82.3367 46.1317 82.8352 42.7927 86.7892L39.1169 91.142C35.7778 95.096 36.2764 101.008 40.2304 104.347L40.2362 104.352C44.1902 107.691 50.1024 107.193 53.4414 103.239L57.1172 98.8859C60.4562 94.9319 59.9577 89.0197 56.0037 85.6807Z" stroke="#FBAD18" stroke-width="4" stroke-linecap="round" stroke-linejoin="round"/>
<path d="M100.218 126.849L100.212 126.844C96.258 123.505 90.3458 124.003 87.0068 127.957L83.331 132.31C79.9919 136.264 80.4905 142.176 84.4445 145.515L84.4503 145.52C88.4043 148.859 94.3165 148.361 97.6555 144.407L101.331 140.054C104.67 136.1 104.172 130.188 100.218 126.849Z" stroke="#FBAD18" stroke-width="4" stroke-linecap="round" stroke-linejoin="round"/>
<path d="M71.6004 96.9678L71.5945 96.9628C67.6405 93.6238 61.7284 94.1223 58.3893 98.0764L50.3085 107.646C46.9695 111.6 47.468 117.512 51.422 120.851L51.4278 120.856C55.3819 124.195 61.294 123.696 64.633 119.742L72.7139 110.173C76.0529 106.219 75.5544 100.307 71.6004 96.9678Z" stroke="#FBAD18" stroke-width="4" stroke-linecap="round" stroke-linejoin="round"/>
<path d="M87.3251 126.941C91.1158 122.453 90.5499 115.74 86.0609 111.95C81.572 108.159 74.86 108.725 71.0692 113.214L66.1271 119.066C62.3363 123.555 62.9023 130.267 67.3912 134.058C71.8802 137.849 78.5922 137.283 82.383 132.794L87.3251 126.941Z" stroke="#FBAD18" stroke-width="4" stroke-linecap="round" stroke-linejoin="round"/>
<path d="M116.165 58.6407C116.165 58.6407 125.792 55.0136 124.965 36.5156" stroke="#FBAD18" stroke-width="4" stroke-linecap="round" stroke-linejoin="round"/>
<path d="M142.425 26.8881L137.111 17.2292C135.839 14.9197 136.692 12.0212 138.999 10.7747L154.165 2.56883C156.427 1.34522 159.244 2.16351 160.508 4.40425L189.897 56.6448C191.145 58.8703 190.414 61.6922 188.244 63.0153L173.375 72.1082C171.098 73.5001 168.129 72.7277 166.819 70.3952L156.175 51.521" stroke="#FBAD18" stroke-width="4" stroke-linecap="round" stroke-linejoin="round"/>
</svg>
