<svg width="115" height="132" viewBox="0 0 115 132" fill="none" xmlns="http://www.w3.org/2000/svg">
<path d="M57.2978 131.271C57.0487 131.271 56.7953 131.228 56.5476 131.137C40.874 125.359 28.1925 116.444 18.855 104.638C11.3894 95.1983 6.05161 83.9196 2.9896 71.1145C-2.20196 49.4058 0.916014 31.052 1.05096 30.2814C1.18937 29.4943 1.74866 28.8473 2.50668 28.5965C34.6814 17.9565 55.7032 0.674453 55.9119 0.501328C56.8331 -0.264932 58.2007 -0.138669 58.967 0.783361C59.7324 1.70496 59.6061 3.0726 58.6845 3.83842C57.8185 4.55826 37.3555 21.3769 5.1413 32.2899C4.55076 36.7607 2.98049 52.5411 7.24439 70.2497C10.1715 82.4084 15.2411 93.0961 22.3132 102.015C31.1425 113.151 43.1658 121.58 58.0484 127.066C59.1727 127.48 59.748 128.728 59.3336 129.852C59.0104 130.728 58.1808 131.271 57.2978 131.271Z" fill="#FBAD18"/>
<path d="M57.2995 131.272C56.4165 131.272 55.5869 130.729 55.2636 129.853C54.8493 128.728 55.4246 127.481 56.5488 127.067C69.062 122.453 79.5904 115.741 87.8405 107.115C88.6684 106.25 90.0417 106.218 90.9078 107.047C91.7734 107.875 91.8042 109.249 90.9759 110.114C82.2659 119.221 71.1876 126.294 58.0497 131.137C57.8019 131.228 57.5485 131.272 57.2995 131.272Z" fill="#FBAD18"/>
<path d="M104.247 88.4532C103.953 88.4532 103.656 88.3933 103.37 88.267C102.274 87.7824 101.779 86.5011 102.264 85.4055C112.538 62.1855 110.205 38.004 109.455 32.2905C77.2409 21.3776 56.7787 4.55845 55.9122 3.83906C54.9907 3.07323 54.8648 1.70602 55.6302 0.784426C56.3956 -0.13717 57.7632 -0.263868 58.6848 0.501091C58.894 0.67465 79.9644 17.9732 112.09 28.5967C112.849 28.8475 113.408 29.4949 113.546 30.2816C113.753 31.4613 118.476 59.491 106.232 87.161C105.873 87.9715 105.079 88.4532 104.247 88.4532Z" fill="#FBAD18"/>
<path d="M57.2977 117.45C57.0486 117.45 56.7952 117.407 56.5475 117.316C28.5538 106.997 18.1524 85.9065 14.3563 70.0307C10.2733 52.9552 12.7279 38.5047 12.8342 37.8977C12.9726 37.111 13.5319 36.4636 14.2899 36.2128C39.3743 27.918 55.7491 14.4564 55.9118 14.321C56.833 13.5552 58.2006 13.6823 58.9669 14.6031C59.7323 15.5247 59.606 16.8927 58.6844 17.6586C58.0071 18.2218 42.0523 31.3367 16.9297 39.9036C16.449 43.7192 15.3707 55.733 18.6106 69.1655C20.8873 78.6032 24.8245 86.8958 30.3137 93.8143C37.1645 102.449 46.4954 108.986 58.0483 113.245C59.1726 113.659 59.7479 114.907 59.3335 116.031C59.0103 116.908 58.1807 117.45 57.2977 117.45Z" fill="#FBAD18"/>
<path d="M57.2995 117.451C56.4165 117.451 55.5869 116.908 55.2636 116.032C54.8493 114.907 55.4246 113.66 56.5488 113.246C65.8056 109.832 73.6691 104.94 79.9198 98.7039C80.7676 97.8578 82.1409 97.8591 82.9879 98.7078C83.834 99.5561 83.8322 100.929 82.9839 101.776C76.2872 108.457 67.8978 113.686 58.0497 117.316C57.8019 117.407 57.5485 117.451 57.2995 117.451Z" fill="#FBAD18"/>
<path d="M95.6801 79.8532C95.4324 79.8532 95.1803 79.8102 94.9338 79.7204C93.8092 79.3082 93.2308 78.062 93.643 76.937C99.642 60.5604 98.2362 44.4416 97.6665 39.9043C91.447 37.7817 85.2506 35.1883 79.2277 32.1858C78.1551 31.6512 77.719 30.3486 78.254 29.2765C78.7886 28.2039 80.0915 27.7678 81.1633 28.3028C87.414 31.4186 93.8547 34.0806 100.307 36.2141C101.065 36.4648 101.625 37.1122 101.763 37.8989C101.906 38.7129 105.176 58.0685 97.7173 78.4296C97.3953 79.3082 96.5644 79.8532 95.6801 79.8532Z" fill="#FBAD18"/>
<path d="M72.8849 28.5185C72.5213 28.5185 72.1529 28.427 71.8145 28.2343C61.8648 22.5754 56.1508 17.8577 55.9126 17.6594C54.991 16.8936 54.8648 15.5259 55.6302 14.6043C56.3964 13.6832 57.7628 13.5565 58.6844 14.3214C58.7403 14.3679 64.3714 19.0093 73.9597 24.4629C75.001 25.0552 75.3655 26.3799 74.7732 27.4212C74.3732 28.1241 73.6395 28.5185 72.8849 28.5185Z" fill="#FBAD18"/>
<path d="M52.6095 82.7255C52.0255 82.7255 51.4653 82.4903 51.0562 82.0708L37.8254 68.5033C36.9888 67.6455 37.0062 66.2722 37.864 65.4356C38.7218 64.5986 40.0946 64.616 40.9321 65.4743L52.4958 77.3322L77.1993 48.147C77.9725 47.2328 79.341 47.1178 80.2565 47.8928C81.1707 48.6668 81.2848 50.0358 80.5108 50.9504L54.2652 81.9575C53.8704 82.4244 53.2968 82.7025 52.6859 82.7242C52.6603 82.7251 52.6351 82.7255 52.6095 82.7255Z" fill="#FBAD18"/>
<path d="M69.4334 94.4167C68.4754 94.4167 67.5985 93.7771 67.339 92.8082C67.0292 91.6506 67.7161 90.4613 68.8732 90.1511C91.0354 84.2149 88.7631 66.6977 88.6559 65.9548C88.4841 64.772 89.3011 63.6695 90.4834 63.4938C91.6649 63.3176 92.7666 64.1281 92.9462 65.3096C92.9814 65.5383 93.7685 70.9759 91.2953 77.2813C87.1798 87.7694 77.4414 92.3479 69.9962 94.3425C69.8079 94.3924 69.6191 94.4167 69.4334 94.4167Z" fill="#FBAD18"/>
<path d="M112.414 94.4174C112.229 94.4174 112.04 94.3935 111.851 94.3432C104.406 92.3485 94.6679 87.7701 90.5524 77.2819C88.0792 70.9766 88.8667 65.539 88.9014 65.3103C89.0819 64.1262 90.1862 63.3113 91.3725 63.4918C92.5548 63.6719 93.3684 64.7744 93.1918 65.9564C93.0824 66.7131 90.8218 84.2182 112.974 90.1517C114.132 90.462 114.818 91.6513 114.509 92.8089C114.249 93.7778 113.372 94.4174 112.414 94.4174Z" fill="#FBAD18"/>
<path d="M91.0435 121.535C89.9857 121.535 89.0602 120.761 88.9001 119.683C88.8654 119.45 88.0818 113.902 90.5467 107.481C94.6588 96.773 104.402 92.1468 111.851 90.1509C113.013 89.8428 114.199 90.5279 114.509 91.6852C114.818 92.8428 114.132 94.0321 112.974 94.3423C103.556 96.8654 97.3728 101.809 94.5971 109.036C92.5361 114.404 93.1857 119.001 93.1922 119.047C93.3675 120.232 92.5496 121.335 91.3642 121.511C91.2565 121.527 91.149 121.535 91.0435 121.535Z" fill="#FBAD18"/>
<path d="M90.8041 121.536C90.6982 121.536 90.5911 121.528 90.4834 121.512C89.3002 121.336 88.4827 120.237 88.6546 119.054C88.7626 118.291 91.048 100.283 68.8732 94.3432C67.7161 94.033 67.0292 92.8437 67.339 91.686C67.6492 90.5292 68.8359 89.8411 69.9962 90.1517C77.4457 92.1477 87.1889 96.7739 91.3009 107.482C93.7659 113.902 92.9823 119.451 92.9476 119.684C92.7875 120.762 91.8619 121.536 90.8041 121.536Z" fill="#FBAD18"/>
</svg>
