<svg width="109" height="98" viewBox="0 0 109 98" fill="none" xmlns="http://www.w3.org/2000/svg">
<path d="M105.474 85.6994H3.09668C1.50488 85.6994 0.209717 84.4043 0.209717 82.8124V3.46433C0.209717 1.55424 1.76392 0 3.67407 0C5.36169 0 6.79724 1.20653 7.08643 2.86921L12.7998 35.6207H96.0303L101.047 2.93844C101.308 1.23606 102.748 0 104.471 0H104.896C106.807 0 108.361 1.55424 108.361 3.46433V82.8124C108.361 84.4043 107.066 85.6994 105.474 85.6994ZM3.67407 1.52726C2.60596 1.52726 1.73706 2.39627 1.73706 3.46433V82.8124C1.73706 83.5623 2.34741 84.1722 3.09668 84.1722H105.474C106.223 84.1722 106.834 83.5623 106.834 82.8124V3.46433C106.834 2.39627 105.965 1.52726 104.896 1.52726H104.471C103.508 1.52726 102.702 2.21809 102.556 3.17058L97.3406 37.148H11.516L5.58203 3.13138C5.42017 2.2018 4.61792 1.52726 3.67407 1.52726Z" fill="#FBAD18"/>
<rect x="0.973633" y="48.7754" width="106.623" height="1.52726" fill="#FBAD18"/>
<rect x="15.2041" y="0.328125" width="1.52752" height="45.0498" transform="rotate(-10.4208 15.2041 0.328125)" fill="#FBAD18"/>
<rect x="21.0249" y="0.328125" width="1.52752" height="45.0498" transform="rotate(-10.4208 21.0249 0.328125)" fill="#FBAD18"/>
<rect x="26.8455" y="0.328125" width="1.52752" height="45.0498" transform="rotate(-10.4208 26.8455 0.328125)" fill="#FBAD18"/>
<rect x="32.6663" y="0.328125" width="1.52752" height="45.0498" transform="rotate(-10.4208 32.6663 0.328125)" fill="#FBAD18"/>
<rect x="43.5369" y="18.5781" width="1.52752" height="26.3361" transform="rotate(-10.4195 43.5369 18.5781)" fill="#FBAD18"/>
<rect x="49.4521" y="18.5781" width="1.52755" height="26.3362" transform="rotate(-10.4207 49.4521 18.5781)" fill="#FBAD18"/>
<rect x="55.3674" y="18.5781" width="1.52755" height="26.3362" transform="rotate(-10.4207 55.3674 18.5781)" fill="#FBAD18"/>
<path d="M80.0164 37.4725L67.1018 33.9043L63.8499 20.75L73.1091 11.0117L80.0164 37.4725ZM68.3695 32.6702L77.8696 35.2946L72.3246 14.0535L65.5334 21.1955L68.3695 32.6702Z" fill="#FBAD18"/>
<path d="M90.4729 37.4725L77.5579 33.9043L74.3059 20.75L83.5656 11.0117L90.4729 37.4725ZM78.8254 32.6702L88.326 35.2946L82.781 14.0535L75.9894 21.1955L78.8254 32.6702Z" fill="#FBAD18"/>
<path d="M30.1428 85.6993H10.8948L17.0903 60.4619H24.1127L30.1428 85.6993ZM12.8425 84.1721H28.2083L22.9077 61.9892H18.2882L12.8425 84.1721Z" fill="#FBAD18"/>
<path d="M37.1707 79.3185H26.9778L23.8179 65.7783H34.0107L37.1707 79.3185ZM28.1898 77.7912H35.2452L32.7986 67.3056H25.7427L28.1898 77.7912Z" fill="#FBAD18"/>
<path d="M66.0833 85.6993H46.8352L53.0308 60.4619H60.0532L66.0833 85.6993ZM48.783 84.1721H64.1487L58.8481 61.9892H54.2288L48.783 84.1721Z" fill="#FBAD18"/>
<path d="M73.1111 79.3185H62.9182L59.7583 65.7783H69.9512L73.1111 79.3185ZM64.1304 77.7912H71.1858L68.739 67.3056H61.6831L64.1304 77.7912Z" fill="#FBAD18"/>
<path d="M90.0918 85.6993H70.8438L77.0394 60.4619H84.0616L90.0918 85.6993ZM72.7916 84.1721H88.1573L82.8567 61.9892H78.2372L72.7916 84.1721Z" fill="#FBAD18"/>
<path d="M97.1196 79.3185H86.9268L83.7668 65.7783H93.9597L97.1196 79.3185ZM88.1388 77.7912H95.1942L92.7477 67.3056H85.6918L88.1388 77.7912Z" fill="#FBAD18"/>
<path d="M102.831 90.2158H5.00464V84.1719H102.831V90.2158ZM6.53149 88.6885H101.303V85.6991H6.53149V88.6885Z" fill="#FBAD18"/>
<path d="M102.189 97.7655H5.64656C5.19344 97.7655 4.77156 97.5415 4.51802 97.1653L0.2325 90.8109C-0.0489937 90.3924 -0.0770699 89.8558 0.160235 89.4104C0.396929 88.9649 0.857134 88.6885 1.36116 88.6885H106.473C106.978 88.6885 107.438 88.9654 107.675 89.4104C107.912 89.8558 107.884 90.3924 107.603 90.8109L103.317 97.1653C103.065 97.541 102.642 97.7655 102.189 97.7655ZM5.7347 96.2382H102.1L106.161 90.2157H1.67366L5.7347 96.2382Z" fill="#FBAD18"/>
</svg>
