<svg width="93" height="99" viewBox="0 0 93 99" fill="none" xmlns="http://www.w3.org/2000/svg">
<path d="M72.4702 59.0285H20.2253C19.0085 59.0285 18.0195 58.0393 18.0195 56.8231V55.1131C18.0195 53.8964 19.0085 52.9072 20.2253 52.9072H72.4702C73.687 52.9072 74.676 53.8964 74.676 55.1131V56.8231C74.676 58.0393 73.687 59.0285 72.4702 59.0285ZM20.2253 54.4345C19.8511 54.4345 19.5466 54.7389 19.5466 55.1131V56.8231C19.5466 57.1973 19.8511 57.5012 20.2253 57.5012H72.4702C72.8444 57.5012 73.1488 57.1973 73.1488 56.8231V55.1131C73.1488 54.7389 72.8444 54.4345 72.4702 54.4345H20.2253Z" fill="#FBAD18"/>
<path d="M29.9692 98.2142C28.861 98.2142 27.8403 97.7087 27.1688 96.8264C26.4977 95.9452 26.2814 94.8267 26.5761 93.7582L36.4234 58.0626L37.8957 58.4684L28.049 94.1644C27.8815 94.7692 28.0041 95.4025 28.3844 95.9014C28.7641 96.4003 29.342 96.6869 29.9692 96.6869C30.6554 96.6869 31.2841 96.3407 31.6518 95.7619L55.702 57.8564L56.9914 58.6745L32.9413 96.58C32.2917 97.6033 31.1808 98.2142 29.9692 98.2142Z" fill="#FBAD18"/>
<path d="M63.2192 98.2142C62.0076 98.2142 60.8967 97.6033 60.2471 96.58L36.197 58.6745L37.4865 57.8564L61.5366 95.7619C61.9042 96.3407 62.533 96.6869 63.2192 96.6869C63.8464 96.6869 64.4241 96.4003 64.804 95.9014C65.1842 95.4025 65.3069 94.7692 65.1394 94.1649L55.2927 58.4684L56.765 58.0626L66.6123 93.7587C66.907 94.8267 66.6907 95.9452 66.0197 96.8264C65.3481 97.7087 64.3274 98.2142 63.2192 98.2142Z" fill="#FBAD18"/>
<path d="M83.624 66.0346H71.2598V64.5074H83.624C85.251 64.5074 86.655 63.4032 87.0378 61.8224L90.5842 47.1934L92.0686 47.5533L88.5225 62.1824C87.9727 64.4503 85.9583 66.0346 83.624 66.0346Z" fill="#FBAD18"/>
<path d="M71.0571 97.1807L75.3871 65.0001L76.9003 65.2038L72.5704 97.3843L71.0571 97.1807Z" fill="#FBAD18"/>
<rect x="85.0537" y="65.416" width="1.52688" height="32.4704" transform="rotate(-7.67832 85.0537 65.416)" fill="#FBAD18"/>
<path d="M20.8088 66.0346H8.44458C6.11047 66.0346 4.09595 64.4503 3.54626 62.1824L0 47.5533L1.48438 47.1934L5.03076 61.8224C5.41357 63.4032 6.81763 64.5074 8.44458 64.5074H20.8088V66.0346Z" fill="#FBAD18"/>
<rect x="17.1665" y="65.416" width="1.52688" height="32.4705" transform="rotate(-7.67919 17.1665 65.416)" fill="#FBAD18"/>
<rect x="2.05713" y="97.1807" width="32.4704" height="1.52688" transform="rotate(-82.3368 2.05713 97.1807)" fill="#FBAD18"/>
<path d="M38.8464 30.7924H24.2046V15.4883H38.8464V30.7924ZM25.7324 29.2651H37.3196V17.0155H25.7324V29.2651Z" fill="#FBAD18"/>
<path d="M64.5032 34.3383H49.8618V19.0342H64.5032V34.3383ZM51.3892 32.8111H62.9758V20.5614H51.3892V32.8111Z" fill="#FBAD18"/>
<rect x="56.4189" width="1.52726" height="19.7978" fill="#FBAD18"/>
<rect x="30.762" width="1.52726" height="16.252" fill="#FBAD18"/>
</svg>
