<svg width="81" height="84" viewBox="0 0 81 84" fill="none" xmlns="http://www.w3.org/2000/svg">
<path d="M80.3403 79.2915H59.249V37.9634C59.249 32.5737 63.6338 28.1895 69.0234 28.1895H70.5659C75.9557 28.1895 80.3403 32.5737 80.3403 37.9634V79.2915ZM60.7764 77.7642H78.8132V37.9634C78.8132 33.4167 75.1136 29.7167 70.5659 29.7167H69.0234C64.4763 29.7167 60.7764 33.4167 60.7764 37.9634V77.7642Z" fill="#FBAD18"/>
<path d="M73.8829 29.7159H64.947V24.2988C64.947 21.8358 66.9513 19.8311 69.4148 19.8311C71.8783 19.8311 73.8829 21.8358 73.8829 24.2988V29.7159ZM66.4742 28.1887H72.3558V24.2988C72.3558 22.6774 71.0367 21.3583 69.4148 21.3583C67.7933 21.3583 66.4742 22.6774 66.4742 24.2988V28.1887Z" fill="#FBAD18"/>
<path d="M53.312 45.2438H2.93237L23.3677 28.1895H33.2764L33.4907 28.3712L53.312 45.2438ZM7.14612 43.7166H49.1614L32.715 29.7167H23.9215L7.14612 43.7166Z" fill="#FBAD18"/>
<path d="M28.4417 52.493C24.3787 52.493 21.0737 49.1875 21.0737 45.1245V43.7158H35.8103V45.1245C35.8103 49.1875 32.5046 52.493 28.4417 52.493ZM22.6016 45.2431C22.665 48.4096 25.2605 50.9657 28.4417 50.9657C31.623 50.9657 34.2183 48.4096 34.282 45.2431H22.6016Z" fill="#FBAD18"/>
<path d="M69.7335 83.7073C67.0944 83.7073 64.947 81.5594 64.947 78.9198V77.7637H74.5209V78.9198C74.5209 81.5594 72.3732 83.7073 69.7335 83.7073ZM66.4952 79.291C66.6799 80.9149 68.0616 82.18 69.7335 82.18C71.4059 82.18 72.7875 80.9149 72.9728 79.291H66.4952Z" fill="#FBAD18"/>
<path d="M33.759 29.7159H23.2805V25.0701C23.2805 22.181 25.6305 19.8311 28.5195 19.8311C31.4087 19.8311 33.759 22.181 33.759 25.0701V29.7159ZM24.8079 28.1887H32.2318V25.0701C32.2318 23.0236 30.5667 21.3583 28.5195 21.3583C26.473 21.3583 24.8079 23.0236 24.8079 25.0701V28.1887Z" fill="#FBAD18"/>
<rect x="27.7559" width="1.52726" height="20.5951" fill="#FBAD18"/>
<rect x="68.6516" width="1.52726" height="20.5951" fill="#FBAD18"/>
<rect x="13.4575" y="43.9531" width="20.9994" height="1.52745" transform="rotate(-47.6874 13.4575 43.9531)" fill="#FBAD18"/>
<rect x="62.96" y="40.9268" width="1.52726" height="26.8237" fill="#FBAD18"/>
<path d="M17.5721 71.2394H0V63.3623C0 58.7113 3.78467 54.9268 8.43555 54.9268H9.13599C13.7876 54.9268 17.5721 58.7113 17.5721 63.3623V71.2394ZM1.52734 69.7122H16.0449V63.3623C16.0449 59.5533 12.9456 56.454 9.13599 56.454H8.43555C4.62659 56.454 1.52734 59.5533 1.52734 63.3623V69.7122Z" fill="#FBAD18"/>
<path d="M58.8486 30.5816H38.7036L42.65 10.3984H54.9022L58.8486 30.5816ZM40.5582 29.0543H56.994L53.6443 11.9257H43.9081L40.5582 29.0543Z" fill="#FBAD18"/>
<path d="M53.5823 11.9254H44.0364L46.3635 4.84863H50.7915L53.5823 11.9254ZM46.1465 10.3982H51.3381L49.7524 6.37585H47.4688L46.1465 10.3982Z" fill="#FBAD18"/>
<path d="M12.9017 56.4547H4.73706L6.72144 50.4189H10.5208L12.9017 56.4547ZM6.84729 54.9274H10.6572L9.48181 51.9462H7.82727L6.84729 54.9274Z" fill="#FBAD18"/>
<rect x="8.02222" width="1.52726" height="41.3525" fill="#FBAD18"/>
<rect x="8.02222" y="44.4795" width="1.52726" height="6.79068" fill="#FBAD18"/>
<rect x="48.0122" width="1.52726" height="5.61215" fill="#FBAD18"/>
<path d="M48.776 34.2993C46.5411 34.2993 44.7231 32.4808 44.7231 30.2459V29.0547H52.8298V30.2459C52.8298 32.4808 51.0114 34.2993 48.776 34.2993ZM46.2728 30.582C46.4373 31.8165 47.4972 32.772 48.776 32.772C50.0558 32.772 51.1152 31.8165 51.2802 30.582H46.2728Z" fill="#FBAD18"/>
<path d="M8.49011 74.8536C6.25464 74.8536 4.43677 73.0352 4.43677 70.8003V69.7129H12.5435V70.8003C12.5435 73.0352 10.725 74.8536 8.49011 74.8536ZM6.0022 71.2402C6.21094 72.4238 7.24683 73.3264 8.49011 73.3264C9.73279 73.3264 10.7688 72.4238 10.9775 71.2402H6.0022Z" fill="#FBAD18"/>
</svg>
