<svg width="97" height="90" viewBox="0 0 97 90" fill="none" xmlns="http://www.w3.org/2000/svg">
<path d="M96.2518 89.4611H0V0H96.2518V89.4611ZM1.52673 87.9338H94.724V1.52726H1.52673V87.9338Z" fill="#FBAD18"/>
<rect x="66.5444" y="0.763672" width="1.52726" height="87.9338" fill="#FBAD18"/>
<rect x="38.0256" y="0.763672" width="1.52726" height="87.9338" fill="#FBAD18"/>
<rect x="0.763672" y="9.50586" width="38.0256" height="1.52726" fill="#FBAD18"/>
<rect x="0.763672" y="50.7568" width="38.0256" height="1.52726" fill="#FBAD18"/>
<rect x="0.763672" y="69.6006" width="38.0256" height="1.52726" fill="#FBAD18"/>
<rect x="16.5469" y="75.3623" width="6.45927" height="1.52726" fill="#FBAD18"/>
<rect x="59.9092" y="41.501" width="1.52726" height="6.45927" fill="#FBAD18"/>
<rect x="87.804" y="41.501" width="1.52726" height="6.45927" fill="#FBAD18"/>
<rect x="16.5469" y="56.5225" width="6.45927" height="1.52726" fill="#FBAD18"/>
<path d="M30.5467 52.2838H11.6312C9.44611 52.2838 7.66895 50.5066 7.66895 48.3216C7.66895 46.1366 9.44611 44.3594 11.6312 44.3594H30.5467C32.7318 44.3594 34.509 46.1366 34.509 48.3216C34.509 50.5066 32.7318 52.2838 30.5467 52.2838ZM11.6312 45.8866C10.2882 45.8866 9.19623 46.9791 9.19623 48.3216C9.19623 49.6646 10.2882 50.7565 11.6312 50.7565H30.5467C31.8897 50.7565 32.9817 49.6646 32.9817 48.3216C32.9817 46.9791 31.8897 45.8866 30.5467 45.8866H11.6312Z" fill="#FBAD18"/>
<path d="M30.5467 45.8863H11.6312C9.44611 45.8863 7.66895 44.1086 7.66895 41.9236C7.66895 39.7386 9.44611 37.9619 11.6312 37.9619H30.5467C32.7318 37.9619 34.509 39.7386 34.509 41.9236C34.509 44.1086 32.7318 45.8863 30.5467 45.8863ZM11.6312 39.4892C10.2882 39.4892 9.19623 40.5817 9.19623 41.9236C9.19623 43.2671 10.2882 44.3591 11.6312 44.3591H30.5467C31.8897 44.3591 32.9817 43.2671 32.9817 41.9236C32.9817 40.5817 31.8897 39.4892 30.5467 39.4892H11.6312Z" fill="#FBAD18"/>
<path d="M30.5467 39.4884H11.6312C9.44611 39.4884 7.66895 37.7112 7.66895 35.5262C7.66895 33.3412 9.44611 31.5635 11.6312 31.5635H30.5467C32.7318 31.5635 34.509 33.3412 34.509 35.5262C34.509 37.7112 32.7318 39.4884 30.5467 39.4884ZM11.6312 33.0907C10.2882 33.0907 9.19623 34.1832 9.19623 35.5262C9.19623 36.8692 10.2882 37.9612 11.6312 37.9612H30.5467C31.8897 37.9612 32.9817 36.8692 32.9817 35.5262C32.9817 34.1832 31.8897 33.0907 30.5467 33.0907H11.6312Z" fill="#FBAD18"/>
</svg>
