<svg width="77" height="81" viewBox="0 0 77 81" fill="none" xmlns="http://www.w3.org/2000/svg">
<rect width="1.52726" height="79.4183" fill="#FBAD18"/>
<rect x="21.3267" width="1.52726" height="79.4183" fill="#FBAD18"/>
<rect x="0.763184" y="67.9023" width="21.3271" height="1.52726" fill="#FBAD18"/>
<rect x="0.763184" y="62.8154" width="21.3271" height="1.52726" fill="#FBAD18"/>
<rect x="0.763184" y="54.5986" width="21.3271" height="1.52726" fill="#FBAD18"/>
<rect x="0.763184" y="49.707" width="21.3271" height="1.52726" fill="#FBAD18"/>
<rect x="0.763184" y="42.4678" width="21.3271" height="1.52726" fill="#FBAD18"/>
<rect x="0.763184" y="36.5977" width="21.3271" height="1.52726" fill="#FBAD18"/>
<rect x="0.763672" y="29.75" width="70.632" height="1.52726" fill="#FBAD18"/>
<rect x="0.763672" y="25.0537" width="70.632" height="1.52726" fill="#FBAD18"/>
<path d="M72.1594 69.4294H21.3267V62.8154H72.1594V69.4294ZM22.854 67.9023H70.6323V64.3428H22.854V67.9023Z" fill="#FBAD18"/>
<path d="M76.5105 80.182H70.6321V0.0244141H76.5105V80.182ZM72.1594 78.6547H74.9832V1.55164H72.1594V78.6547Z" fill="#FBAD18"/>
<path d="M72.1594 12.9458H21.3267V6.13574H72.1594V12.9458ZM22.854 11.4185H70.6323V7.66309H22.854V11.4185Z" fill="#FBAD18"/>
<path d="M72.1594 64.344H12.7209C10.0347 64.344 7.84912 62.158 7.84912 59.4709C7.84912 56.7847 10.0347 54.5986 12.7209 54.5986H72.1594V64.344ZM12.7209 56.1257C10.8767 56.1257 9.37622 57.6266 9.37622 59.4709C9.37622 61.3154 10.8767 62.8168 12.7209 62.8168H70.6321V56.1257H12.7209Z" fill="#FBAD18"/>
<path d="M72.1594 56.1256H57.7554V54.4991C57.7554 49.6816 61.6743 45.7627 66.4917 45.7627H72.1594V56.1256ZM59.2827 54.5984H70.6323V47.2899H66.4917C62.5171 47.2899 59.2827 50.5236 59.2827 54.4991V54.5984Z" fill="#FBAD18"/>
<rect x="38.5239" y="16.4033" width="6.21293" height="1.52726" fill="#FBAD18"/>
<rect x="50.7007" y="16.4033" width="6.21293" height="1.52726" fill="#FBAD18"/>
<path d="M72.1594 26.5811H12.9377C10.1318 26.5811 7.84912 24.2983 7.84912 21.4922C7.84912 18.686 10.1318 16.4033 12.9377 16.4033H32.6648V17.9307H12.9377C10.9739 17.9307 9.37622 19.5281 9.37622 21.4922C9.37622 23.4558 10.9739 25.0537 12.9377 25.0537H70.6321V17.9307H62.8787V16.4033H72.1594V26.5811Z" fill="#FBAD18"/>
<path d="M39.2874 26.5811H31.7957V17.167H33.323V25.0538H37.76V17.167H39.2874V26.5811Z" fill="#FBAD18"/>
<path d="M39.2874 17.1675H37.76V12.9463H33.323V17.1675H31.7957V11.4189H39.2874V17.1675Z" fill="#FBAD18"/>
<path d="M51.4644 26.5815H43.9727V11.4189H51.4644V26.5815ZM45.5005 25.0543H49.9377V12.9463H45.5005V25.0543Z" fill="#FBAD18"/>
<path d="M63.6416 26.5815H56.1499V11.4189H63.6416V26.5815ZM57.677 25.0543H62.1143V12.9463H57.677V25.0543Z" fill="#FBAD18"/>
</svg>
