<svg width="88" height="87" viewBox="0 0 88 87" fill="none" xmlns="http://www.w3.org/2000/svg">
<path d="M44.463 86.5613H0V0H43.6995V1.52722H1.52734V85.0341H42.9358V66.9483H44.463V86.5613Z" fill="#FBAD18"/>
<rect x="43.6997" y="65.9746" width="35.0572" height="1.52726" fill="#FBAD18"/>
<path d="M87.6083 55.586H86.0811V1.52728H44.4628V48.3071H42.9355V0H87.6083V55.586Z" fill="#FBAD18"/>
<rect x="37.6812" y="47.543" width="43.5497" height="1.52726" fill="#FBAD18"/>
<rect x="37.6812" y="65.9746" width="43.2224" height="1.52726" fill="#FBAD18"/>
<path d="M81.2311 67.5012C77.5692 67.5012 74.7004 63.1179 74.7004 57.5225C74.7004 51.9262 77.5692 47.543 81.2311 47.543C84.8929 47.543 87.7616 51.9262 87.7616 57.5225C87.7616 63.1179 84.8929 67.5012 81.2311 67.5012ZM81.2311 49.0703C78.5192 49.0703 76.2277 52.9413 76.2277 57.5225C76.2277 62.1038 78.5192 65.9739 81.2311 65.9739C83.9429 65.9739 86.2343 62.1038 86.2343 57.5225C86.2343 52.9413 83.9429 49.0703 81.2311 49.0703Z" fill="#FBAD18"/>
<path d="M37.6812 67.5012C34.0193 67.5012 31.1506 63.1179 31.1506 57.522C31.1506 51.9262 34.0193 47.543 37.6812 47.543V49.0703C34.9692 49.0703 32.678 52.9408 32.678 57.522C32.678 62.1033 34.9692 65.9739 37.6812 65.9739V67.5012Z" fill="#FBAD18"/>
<path d="M48.001 45.6039C48.001 46.202 47.5157 46.6873 46.9175 46.6873C46.3193 46.6873 45.8347 46.202 45.8347 45.6039C45.8347 45.0057 46.3193 44.5205 46.9175 44.5205C47.5157 44.5205 48.001 45.0057 48.001 45.6039Z" fill="#FBAD18"/>
<path d="M56.2737 45.6039C56.2737 46.202 55.7886 46.6873 55.1903 46.6873C54.5927 46.6873 54.1074 46.202 54.1074 45.6039C54.1074 45.0057 54.5927 44.5205 55.1903 44.5205C55.7886 44.5205 56.2737 45.0057 56.2737 45.6039Z" fill="#FBAD18"/>
<path d="M64.5468 45.6039C64.5468 46.202 64.0616 46.6873 63.4635 46.6873C62.8652 46.6873 62.3806 46.202 62.3806 45.6039C62.3806 45.0057 62.8652 44.5205 63.4635 44.5205C64.0616 44.5205 64.5468 45.0057 64.5468 45.6039Z" fill="#FBAD18"/>
<path d="M72.8193 45.6039C72.8193 46.202 72.3341 46.6873 71.7361 46.6873C71.1378 46.6873 70.6531 46.202 70.6531 45.6039C70.6531 45.0057 71.1378 44.5205 71.7361 44.5205C72.3341 44.5205 72.8193 45.0057 72.8193 45.6039Z" fill="#FBAD18"/>
<path d="M81.0925 45.6039C81.0925 46.202 80.6074 46.6873 80.0093 46.6873C79.411 46.6873 78.9263 46.202 78.9263 45.6039C78.9263 45.0057 79.411 44.5205 80.0093 44.5205C80.6074 44.5205 81.0925 45.0057 81.0925 45.6039Z" fill="#FBAD18"/>
<path d="M52.179 41.55C52.179 42.1483 51.6937 42.6334 51.0955 42.6334C50.4973 42.6334 50.0127 42.1483 50.0127 41.55C50.0127 40.9519 50.4973 40.4668 51.0955 40.4668C51.6937 40.4668 52.179 40.9519 52.179 41.55Z" fill="#FBAD18"/>
<path d="M60.4517 41.55C60.4517 42.1483 59.9664 42.6334 59.3682 42.6334C58.77 42.6334 58.2854 42.1483 58.2854 41.55C58.2854 40.9519 58.77 40.4668 59.3682 40.4668C59.9664 40.4668 60.4517 40.9519 60.4517 41.55Z" fill="#FBAD18"/>
<path d="M68.7249 41.55C68.7249 42.1483 68.2396 42.6334 67.6409 42.6334C67.0432 42.6334 66.5586 42.1483 66.5586 41.55C66.5586 40.9519 67.0432 40.4668 67.6409 40.4668C68.2396 40.4668 68.7249 40.9519 68.7249 41.55Z" fill="#FBAD18"/>
<path d="M76.9976 41.55C76.9976 42.1483 76.5123 42.6334 75.9141 42.6334C75.3159 42.6334 74.8313 42.1483 74.8313 41.55C74.8313 40.9519 75.3159 40.4668 75.9141 40.4668C76.5123 40.4668 76.9976 40.9519 76.9976 41.55Z" fill="#FBAD18"/>
<path d="M85.2703 41.55C85.2703 42.1483 84.785 42.6334 84.1868 42.6334C83.5886 42.6334 83.104 42.1483 83.104 41.55C83.104 40.9519 83.5886 40.4668 84.1868 40.4668C84.785 40.4668 85.2703 40.9519 85.2703 41.55Z" fill="#FBAD18"/>
<path d="M48.001 37.0931C48.001 37.6913 47.5157 38.1765 46.9175 38.1765C46.3193 38.1765 45.8347 37.6913 45.8347 37.0931C45.8347 36.4949 46.3193 36.0098 46.9175 36.0098C47.5157 36.0098 48.001 36.4949 48.001 37.0931Z" fill="#FBAD18"/>
<path d="M56.2737 37.0931C56.2737 37.6913 55.7886 38.1765 55.1903 38.1765C54.5927 38.1765 54.1074 37.6913 54.1074 37.0931C54.1074 36.4949 54.5927 36.0098 55.1903 36.0098C55.7886 36.0098 56.2737 36.4949 56.2737 37.0931Z" fill="#FBAD18"/>
<path d="M64.5468 37.0931C64.5468 37.6913 64.0616 38.1765 63.4635 38.1765C62.8652 38.1765 62.3806 37.6913 62.3806 37.0931C62.3806 36.4949 62.8652 36.0098 63.4635 36.0098C64.0616 36.0098 64.5468 36.4949 64.5468 37.0931Z" fill="#FBAD18"/>
<path d="M72.8193 37.0931C72.8193 37.6913 72.3341 38.1765 71.7361 38.1765C71.1378 38.1765 70.6531 37.6913 70.6531 37.0931C70.6531 36.4949 71.1378 36.0098 71.7361 36.0098C72.3341 36.0098 72.8193 36.4949 72.8193 37.0931Z" fill="#FBAD18"/>
<path d="M81.0925 37.0931C81.0925 37.6913 80.6074 38.1765 80.0093 38.1765C79.411 38.1765 78.9263 37.6913 78.9263 37.0931C78.9263 36.4949 79.411 36.0098 80.0093 36.0098C80.6074 36.0098 81.0925 36.4949 81.0925 37.0931Z" fill="#FBAD18"/>
<path d="M52.179 33.0384C52.179 33.6366 51.6937 34.1218 51.0955 34.1218C50.4973 34.1218 50.0127 33.6366 50.0127 33.0384C50.0127 32.4402 50.4973 31.9551 51.0955 31.9551C51.6937 31.9551 52.179 32.4402 52.179 33.0384Z" fill="#FBAD18"/>
<path d="M60.4517 33.0384C60.4517 33.6366 59.9664 34.1218 59.3682 34.1218C58.77 34.1218 58.2854 33.6366 58.2854 33.0384C58.2854 32.4402 58.77 31.9551 59.3682 31.9551C59.9664 31.9551 60.4517 32.4402 60.4517 33.0384Z" fill="#FBAD18"/>
<path d="M68.7249 33.0384C68.7249 33.6366 68.2396 34.1218 67.6409 34.1218C67.0432 34.1218 66.5586 33.6366 66.5586 33.0384C66.5586 32.4402 67.0432 31.9551 67.6409 31.9551C68.2396 31.9551 68.7249 32.4402 68.7249 33.0384Z" fill="#FBAD18"/>
<path d="M76.9976 33.0384C76.9976 33.6366 76.5123 34.1218 75.9141 34.1218C75.3159 34.1218 74.8313 33.6366 74.8313 33.0384C74.8313 32.4402 75.3159 31.9551 75.9141 31.9551C76.5123 31.9551 76.9976 32.4402 76.9976 33.0384Z" fill="#FBAD18"/>
<path d="M85.2703 33.0384C85.2703 33.6366 84.785 34.1218 84.1868 34.1218C83.5886 34.1218 83.104 33.6366 83.104 33.0384C83.104 32.4402 83.5886 31.9551 84.1868 31.9551C84.785 31.9551 85.2703 32.4402 85.2703 33.0384Z" fill="#FBAD18"/>
<path d="M48.001 28.5814C48.001 29.1796 47.5157 29.6647 46.9175 29.6647C46.3193 29.6647 45.8347 29.1796 45.8347 28.5814C45.8347 27.9832 46.3193 27.498 46.9175 27.498C47.5157 27.498 48.001 27.9832 48.001 28.5814Z" fill="#FBAD18"/>
<path d="M56.2737 28.5814C56.2737 29.1796 55.7886 29.6647 55.1903 29.6647C54.5927 29.6647 54.1074 29.1796 54.1074 28.5814C54.1074 27.9832 54.5927 27.498 55.1903 27.498C55.7886 27.498 56.2737 27.9832 56.2737 28.5814Z" fill="#FBAD18"/>
<path d="M64.5468 28.5814C64.5468 29.1796 64.0616 29.6647 63.4635 29.6647C62.8652 29.6647 62.3806 29.1796 62.3806 28.5814C62.3806 27.9832 62.8652 27.498 63.4635 27.498C64.0616 27.498 64.5468 27.9832 64.5468 28.5814Z" fill="#FBAD18"/>
<path d="M72.8193 28.5814C72.8193 29.1796 72.3341 29.6647 71.7361 29.6647C71.1378 29.6647 70.6531 29.1796 70.6531 28.5814C70.6531 27.9832 71.1378 27.498 71.7361 27.498C72.3341 27.498 72.8193 27.9832 72.8193 28.5814Z" fill="#FBAD18"/>
<path d="M81.0925 28.5814C81.0925 29.1796 80.6074 29.6647 80.0093 29.6647C79.411 29.6647 78.9263 29.1796 78.9263 28.5814C78.9263 27.9832 79.411 27.498 80.0093 27.498C80.6074 27.498 81.0925 27.9832 81.0925 28.5814Z" fill="#FBAD18"/>
<path d="M52.179 24.5276C52.179 25.1259 51.6937 25.611 51.0955 25.611C50.4973 25.611 50.0127 25.1259 50.0127 24.5276C50.0127 23.9295 50.4973 23.4443 51.0955 23.4443C51.6937 23.4443 52.179 23.9295 52.179 24.5276Z" fill="#FBAD18"/>
<path d="M60.4517 24.5276C60.4517 25.1259 59.9664 25.611 59.3682 25.611C58.77 25.611 58.2854 25.1259 58.2854 24.5276C58.2854 23.9295 58.77 23.4443 59.3682 23.4443C59.9664 23.4443 60.4517 23.9295 60.4517 24.5276Z" fill="#FBAD18"/>
<path d="M68.7249 24.5276C68.7249 25.1259 68.2396 25.611 67.6409 25.611C67.0432 25.611 66.5586 25.1259 66.5586 24.5276C66.5586 23.9295 67.0432 23.4443 67.6409 23.4443C68.2396 23.4443 68.7249 23.9295 68.7249 24.5276Z" fill="#FBAD18"/>
<path d="M76.9976 24.5276C76.9976 25.1259 76.5123 25.611 75.9141 25.611C75.3159 25.611 74.8313 25.1259 74.8313 24.5276C74.8313 23.9295 75.3159 23.4443 75.9141 23.4443C76.5123 23.4443 76.9976 23.9295 76.9976 24.5276Z" fill="#FBAD18"/>
<path d="M85.2703 24.5276C85.2703 25.1259 84.785 25.611 84.1868 25.611C83.5886 25.611 83.104 25.1259 83.104 24.5276C83.104 23.9295 83.5886 23.4443 84.1868 23.4443C84.785 23.4443 85.2703 23.9295 85.2703 24.5276Z" fill="#FBAD18"/>
<path d="M48.001 20.0706C48.001 20.6688 47.5157 21.154 46.9175 21.154C46.3193 21.154 45.8347 20.6688 45.8347 20.0706C45.8347 19.4725 46.3193 18.9873 46.9175 18.9873C47.5157 18.9873 48.001 19.4725 48.001 20.0706Z" fill="#FBAD18"/>
<path d="M56.2737 20.0706C56.2737 20.6688 55.7886 21.154 55.1903 21.154C54.5927 21.154 54.1074 20.6688 54.1074 20.0706C54.1074 19.4725 54.5927 18.9873 55.1903 18.9873C55.7886 18.9873 56.2737 19.4725 56.2737 20.0706Z" fill="#FBAD18"/>
<path d="M64.5468 20.0706C64.5468 20.6688 64.0616 21.154 63.4635 21.154C62.8652 21.154 62.3806 20.6688 62.3806 20.0706C62.3806 19.4725 62.8652 18.9873 63.4635 18.9873C64.0616 18.9873 64.5468 19.4725 64.5468 20.0706Z" fill="#FBAD18"/>
<path d="M72.8193 20.0706C72.8193 20.6688 72.3341 21.154 71.7361 21.154C71.1378 21.154 70.6531 20.6688 70.6531 20.0706C70.6531 19.4725 71.1378 18.9873 71.7361 18.9873C72.3341 18.9873 72.8193 19.4725 72.8193 20.0706Z" fill="#FBAD18"/>
<path d="M81.0925 20.0706C81.0925 20.6688 80.6074 21.154 80.0093 21.154C79.411 21.154 78.9263 20.6688 78.9263 20.0706C78.9263 19.4725 79.411 18.9873 80.0093 18.9873C80.6074 18.9873 81.0925 19.4725 81.0925 20.0706Z" fill="#FBAD18"/>
<path d="M52.179 16.0169C52.179 16.6151 51.6937 17.1003 51.0955 17.1003C50.4973 17.1003 50.0127 16.6151 50.0127 16.0169C50.0127 15.4188 50.4973 14.9336 51.0955 14.9336C51.6937 14.9336 52.179 15.4188 52.179 16.0169Z" fill="#FBAD18"/>
<path d="M60.4517 16.0169C60.4517 16.6151 59.9664 17.1003 59.3682 17.1003C58.77 17.1003 58.2854 16.6151 58.2854 16.0169C58.2854 15.4188 58.77 14.9336 59.3682 14.9336C59.9664 14.9336 60.4517 15.4188 60.4517 16.0169Z" fill="#FBAD18"/>
<path d="M68.7249 16.0169C68.7249 16.6151 68.2396 17.1003 67.6409 17.1003C67.0432 17.1003 66.5586 16.6151 66.5586 16.0169C66.5586 15.4188 67.0432 14.9336 67.6409 14.9336C68.2396 14.9336 68.7249 15.4188 68.7249 16.0169Z" fill="#FBAD18"/>
<path d="M76.9976 16.0169C76.9976 16.6151 76.5123 17.1003 75.9141 17.1003C75.3159 17.1003 74.8313 16.6151 74.8313 16.0169C74.8313 15.4188 75.3159 14.9336 75.9141 14.9336C76.5123 14.9336 76.9976 15.4188 76.9976 16.0169Z" fill="#FBAD18"/>
<path d="M85.2703 16.0169C85.2703 16.6151 84.785 17.1003 84.1868 17.1003C83.5886 17.1003 83.104 16.6151 83.104 16.0169C83.104 15.4188 83.5886 14.9336 84.1868 14.9336C84.785 14.9336 85.2703 15.4188 85.2703 16.0169Z" fill="#FBAD18"/>
<path d="M48.001 11.5599C48.001 12.1581 47.5157 12.6432 46.9175 12.6432C46.3193 12.6432 45.8347 12.1581 45.8347 11.5599C45.8347 10.9617 46.3193 10.4766 46.9175 10.4766C47.5157 10.4766 48.001 10.9617 48.001 11.5599Z" fill="#FBAD18"/>
<path d="M56.2737 11.5599C56.2737 12.1581 55.7886 12.6432 55.1903 12.6432C54.5927 12.6432 54.1074 12.1581 54.1074 11.5599C54.1074 10.9617 54.5927 10.4766 55.1903 10.4766C55.7886 10.4766 56.2737 10.9617 56.2737 11.5599Z" fill="#FBAD18"/>
<path d="M64.5468 11.5599C64.5468 12.1581 64.0616 12.6432 63.4635 12.6432C62.8652 12.6432 62.3806 12.1581 62.3806 11.5599C62.3806 10.9617 62.8652 10.4766 63.4635 10.4766C64.0616 10.4766 64.5468 10.9617 64.5468 11.5599Z" fill="#FBAD18"/>
<path d="M72.8193 11.5599C72.8193 12.1581 72.3341 12.6432 71.7361 12.6432C71.1378 12.6432 70.6531 12.1581 70.6531 11.5599C70.6531 10.9617 71.1378 10.4766 71.7361 10.4766C72.3341 10.4766 72.8193 10.9617 72.8193 11.5599Z" fill="#FBAD18"/>
<path d="M81.0925 11.5599C81.0925 12.1581 80.6074 12.6432 80.0093 12.6432C79.411 12.6432 78.9263 12.1581 78.9263 11.5599C78.9263 10.9617 79.411 10.4766 80.0093 10.4766C80.6074 10.4766 81.0925 10.9617 81.0925 11.5599Z" fill="#FBAD18"/>
<path d="M52.179 7.50616C52.179 8.10437 51.6937 8.58954 51.0955 8.58954C50.4973 8.58954 50.0127 8.10437 50.0127 7.50616C50.0127 6.90802 50.4973 6.42285 51.0955 6.42285C51.6937 6.42285 52.179 6.90802 52.179 7.50616Z" fill="#FBAD18"/>
<path d="M60.4517 7.50616C60.4517 8.10437 59.9664 8.58954 59.3682 8.58954C58.77 8.58954 58.2854 8.10437 58.2854 7.50616C58.2854 6.90802 58.77 6.42285 59.3682 6.42285C59.9664 6.42285 60.4517 6.90802 60.4517 7.50616Z" fill="#FBAD18"/>
<path d="M68.7249 7.50616C68.7249 8.10437 68.2396 8.58954 67.6409 8.58954C67.0432 8.58954 66.5586 8.10437 66.5586 7.50616C66.5586 6.90802 67.0432 6.42285 67.6409 6.42285C68.2396 6.42285 68.7249 6.90802 68.7249 7.50616Z" fill="#FBAD18"/>
<path d="M76.9976 7.50616C76.9976 8.10437 76.5123 8.58954 75.9141 8.58954C75.3159 8.58954 74.8313 8.10437 74.8313 7.50616C74.8313 6.90802 75.3159 6.42285 75.9141 6.42285C76.5123 6.42285 76.9976 6.90802 76.9976 7.50616Z" fill="#FBAD18"/>
<path d="M85.2703 7.50616C85.2703 8.10437 84.785 8.58954 84.1868 8.58954C83.5886 8.58954 83.104 8.10437 83.104 7.50616C83.104 6.90802 83.5886 6.42285 84.1868 6.42285C84.785 6.42285 85.2703 6.90802 85.2703 7.50616Z" fill="#FBAD18"/>
<path d="M48.001 3.04919C48.001 3.64734 47.5157 4.13251 46.9175 4.13251C46.3193 4.13251 45.8347 3.64734 45.8347 3.04919C45.8347 2.45105 46.3193 1.96582 46.9175 1.96582C47.5157 1.96582 48.001 2.45105 48.001 3.04919Z" fill="#FBAD18"/>
<path d="M56.2737 3.04919C56.2737 3.64734 55.7886 4.13251 55.1903 4.13251C54.5927 4.13251 54.1074 3.64734 54.1074 3.04919C54.1074 2.45105 54.5927 1.96582 55.1903 1.96582C55.7886 1.96582 56.2737 2.45105 56.2737 3.04919Z" fill="#FBAD18"/>
<path d="M64.5468 3.04919C64.5468 3.64734 64.0616 4.13251 63.4635 4.13251C62.8652 4.13251 62.3806 3.64734 62.3806 3.04919C62.3806 2.45105 62.8652 1.96582 63.4635 1.96582C64.0616 1.96582 64.5468 2.45105 64.5468 3.04919Z" fill="#FBAD18"/>
<path d="M72.8193 3.04919C72.8193 3.64734 72.3341 4.13251 71.7361 4.13251C71.1378 4.13251 70.6531 3.64734 70.6531 3.04919C70.6531 2.45105 71.1378 1.96582 71.7361 1.96582C72.3341 1.96582 72.8193 2.45105 72.8193 3.04919Z" fill="#FBAD18"/>
<path d="M81.0925 3.04919C81.0925 3.64734 80.6074 4.13251 80.0093 4.13251C79.411 4.13251 78.9263 3.64734 78.9263 3.04919C78.9263 2.45105 79.411 1.96582 80.0093 1.96582C80.6074 1.96582 81.0925 2.45105 81.0925 3.04919Z" fill="#FBAD18"/>
</svg>
