<svg width="97" height="91" viewBox="0 0 97 91" fill="none" xmlns="http://www.w3.org/2000/svg">
<path d="M96.7405 90.5024H65.6909V15.0488H96.7405V90.5024ZM67.2182 88.9752H95.2133V16.5761H67.2182V88.9752Z" fill="#FBAD18"/>
<path d="M67.2181 90.5023H1.27271V52.9766H67.2181V90.5023ZM2.79996 88.975H65.6908V54.5038H2.79996V88.975Z" fill="#FBAD18"/>
<rect x="66.1545" y="36.9023" width="29.5224" height="1.52726" fill="#FBAD18"/>
<rect x="2.03638" y="62.5771" width="64.3937" height="1.52726" fill="#FBAD18"/>
<rect x="33.9412" y="53.7402" width="1.52726" height="35.9985" fill="#FBAD18"/>
<rect x="49.8162" y="63.3398" width="1.52726" height="26.3981" fill="#FBAD18"/>
<path d="M29.071 83.7229H7.99585V69.4639H29.071V83.7229ZM9.52311 82.1956H27.5437V70.9911H9.52311V82.1956Z" fill="#FBAD18"/>
<path d="M1.52777 25.9087L9.67619 19.7055H27.1847L34.8362 25.8944V31.3539H1.52777V25.9087ZM9.16099 18.1777L0 25.1517V32.8811H36.3635V25.1654L27.7243 18.1777H9.16099Z" fill="#FBAD18"/>
<path d="M28.2183 19.7062H9.20703V0H10.7343V18.1789H26.6911V0H28.2183V19.7062Z" fill="#FBAD18"/>
<path d="M49.8806 41.8753H38.3682V38.9261C38.3682 35.7525 40.9502 33.1699 44.1244 33.1699C47.2985 33.1699 49.8806 35.7525 49.8806 38.9261V41.8753ZM39.8954 40.348H48.3534V38.9261C48.3534 36.5945 46.4565 34.6972 44.1244 34.6972C41.7928 34.6972 39.8954 36.5945 39.8954 38.9261V40.348Z" fill="#FBAD18"/>
<rect x="43.3604" width="1.52726" height="33.9341" fill="#FBAD18"/>
<path d="M61.0449 29.0222H49.533V26.0736C49.533 22.9 52.115 20.3174 55.2892 20.3174C58.4628 20.3174 61.0449 22.9 61.0449 26.0736V29.0222ZM51.0602 27.495H59.5177V26.0736C59.5177 23.742 57.6208 21.8446 55.2892 21.8446C52.9576 21.8446 51.0602 23.742 51.0602 26.0736V27.495Z" fill="#FBAD18"/>
<rect x="54.5256" width="1.52726" height="21.0812" fill="#FBAD18"/>
<rect x="17.7698" y="49.417" width="1.52726" height="4.32263" fill="#FBAD18"/>
<path d="M29.0709 53.7396H27.5436V50.1806H22.8855V48.6533H29.0709V53.7396Z" fill="#FBAD18"/>
<path d="M9.52286 53.7396H7.99561V48.6533H14.181V50.1806H9.52286V53.7396Z" fill="#FBAD18"/>
<rect x="72.5818" y="23.4873" width="1.52726" height="5.63866" fill="#FBAD18"/>
<rect x="72.5818" y="46.207" width="1.52726" height="5.6381" fill="#FBAD18"/>
<rect x="56.533" y="73.7734" width="1.52726" height="5.63866" fill="#FBAD18"/>
<rect x="43.3604" y="73.7734" width="1.52726" height="5.63866" fill="#FBAD18"/>
<rect x="47.7605" y="57.7568" width="5.63863" height="1.52726" fill="#FBAD18"/>
<path d="M96.7405 90.5024H65.6909V15.0488H96.7405V90.5024ZM67.2182 88.9752H95.2133V16.5761H67.2182V88.9752Z" fill="#FBAD18"/>
<path d="M67.2181 90.5023H1.27271V52.9766H67.2181V90.5023ZM2.79996 88.975H65.6908V54.5038H2.79996V88.975Z" fill="#FBAD18"/>
<rect x="66.1545" y="36.9023" width="29.5224" height="1.52726" fill="#FBAD18"/>
<rect x="2.03638" y="62.5771" width="64.3937" height="1.52726" fill="#FBAD18"/>
<rect x="33.9412" y="53.7402" width="1.52726" height="35.9985" fill="#FBAD18"/>
<rect x="49.8162" y="63.3398" width="1.52726" height="26.3981" fill="#FBAD18"/>
<path d="M29.0707 83.7229H7.99561V69.4639H29.0707V83.7229ZM9.52286 82.1956H27.5435V70.9911H9.52286V82.1956Z" fill="#FBAD18"/>
<path d="M1.52777 25.9087L9.67619 19.7055H27.1847L34.8362 25.8944V31.3539H1.52777V25.9087ZM9.16099 18.1777L0 25.1517V32.8811H36.3635V25.1654L27.7243 18.1777H9.16099Z" fill="#FBAD18"/>
<path d="M28.2181 19.7062H9.20679V0H10.734V18.1789H26.6908V0H28.2181V19.7062Z" fill="#FBAD18"/>
</svg>
