<svg width="121" height="87" viewBox="0 0 121 87" fill="none" xmlns="http://www.w3.org/2000/svg">
<path d="M82.3883 62.1968H38.1589V50.7333C38.1589 47.7052 40.6229 45.2412 43.651 45.2412H76.8969C79.9249 45.2412 82.3883 47.7052 82.3883 50.7333V62.1968ZM39.6862 60.6696H80.861V50.7333C80.861 48.5472 79.0828 46.7686 76.8969 46.7686H43.651C41.465 46.7686 39.6862 48.5472 39.6862 50.7333V60.6696Z" fill="#FBAD18"/>
<path d="M83.8683 72.1666H36.6797C33.8904 72.1666 31.6204 69.8971 31.6204 67.1078V65.7288C31.6204 62.939 33.8904 60.6699 36.6797 60.6699H83.8683C86.6576 60.6699 88.9271 62.939 88.9271 65.7288V67.1078C88.9271 69.8971 86.6576 72.1666 83.8683 72.1666ZM36.6797 62.1973C34.7324 62.1973 33.1481 63.781 33.1481 65.7288V67.1078C33.1481 69.0552 34.7324 70.6394 36.6797 70.6394H83.8683C85.816 70.6394 87.3998 69.0552 87.3998 67.1078V65.7288C87.3998 63.781 85.816 62.1973 83.8683 62.1973H36.6797Z" fill="#FBAD18"/>
<path d="M115.338 86.4752H4.88916C2.1936 86.4752 0 84.2816 0 81.5865C0 78.891 2.1936 76.6973 4.88916 76.6973H115.338C118.033 76.6973 120.227 78.891 120.227 81.5865C120.227 84.2816 118.033 86.4752 115.338 86.4752ZM4.88916 78.2245C3.03516 78.2245 1.5271 79.7325 1.5271 81.5865C1.5271 83.4401 3.03516 84.9481 4.88916 84.9481H115.338C117.192 84.9481 118.7 83.4401 118.7 81.5865C118.7 79.7325 117.192 78.2245 115.338 78.2245H4.88916Z" fill="#FBAD18"/>
<rect x="80.0815" y="71.4033" width="1.52726" height="6.05761" fill="#FBAD18"/>
<rect x="73.1321" y="71.4033" width="1.52726" height="6.05761" fill="#FBAD18"/>
<rect x="45.7969" y="71.4033" width="1.52726" height="6.05761" fill="#FBAD18"/>
<rect x="38.8467" y="71.4033" width="1.52726" height="6.05761" fill="#FBAD18"/>
<path d="M113.634 78.2246H96.886V74.6589C96.886 72.4429 98.6892 70.6396 100.906 70.6396H109.615C111.831 70.6396 113.634 72.4429 113.634 74.6589V78.2246ZM98.4133 76.6973H112.107V74.6589C112.107 73.2849 110.989 72.167 109.615 72.167H100.906C99.5312 72.167 98.4133 73.2849 98.4133 74.6589V76.6973Z" fill="#FBAD18"/>
<rect x="104.496" y="41.8613" width="1.52726" height="29.5412" fill="#FBAD18"/>
<path d="M20.625 78.2239H10.3289L5.15552 58.5381H25.7979L20.625 78.2239ZM11.5068 76.6965H19.447L23.8176 60.0652H7.13635L11.5068 76.6965Z" fill="#FBAD18"/>
<path d="M115.581 42.6244H94.9392L100.113 22.9385H110.408L115.581 42.6244ZM96.92 41.0972H113.601L109.23 24.4658H101.291L96.92 41.0972Z" fill="#FBAD18"/>
<path d="M7.70557 59.7128C5.04419 55.5413 3.51782 49.4215 3.51782 42.9237C3.51782 30.5853 8.771 20.9209 15.4773 20.9209C22.1824 20.9209 27.4358 30.5853 27.4358 42.9237C27.4358 49.4205 25.9094 55.5408 23.2479 59.7128L21.9604 58.8916C24.4697 54.9579 25.9084 49.1381 25.9084 42.9237C25.9084 31.6337 21.229 22.4481 15.4773 22.4481C9.7251 22.4481 5.04517 31.6337 5.04517 42.9237C5.04517 49.1385 6.48438 54.9584 8.99304 58.8916L7.70557 59.7128Z" fill="#FBAD18"/>
<path d="M88.9269 30.3619H36.6846V0H88.9269V30.3619ZM38.2118 28.8346H87.3997V1.52722H38.2118V28.8346Z" fill="#FBAD18"/>
<path d="M80.4482 26.7587L56.783 12.3516L37.8042 22.3596L37.0925 21.0085L56.8364 10.5967L81.2429 25.4539L80.4482 26.7587Z" fill="#FBAD18"/>
<rect x="68.8228" y="18.5996" width="20.6734" height="1.52786" transform="rotate(-20.7238 68.8228 18.5996)" fill="#FBAD18"/>
</svg>
