<svg width="80" height="87" viewBox="0 0 80 87" fill="none" xmlns="http://www.w3.org/2000/svg">
<path d="M79.7146 86.4202H37.1545V57.0664H79.7146V86.4202ZM38.6824 84.8931H78.1879V58.5938H38.6824V84.8931Z" fill="#FBAD18"/>
<path d="M38.6823 86.4198H0V64.7852H38.6823V86.4198ZM1.52661 84.8925H37.1545V66.3124H1.52661V84.8925Z" fill="#FBAD18"/>
<path d="M38.6823 66.3123H0V44.6777H38.6823V66.3123ZM1.52661 64.785H37.1545V46.2048H1.52661V64.785Z" fill="#FBAD18"/>
<path d="M79.7146 58.5927H43.0466V0H79.7146V58.5927ZM44.574 57.0654H78.1873V1.52722H44.574V57.0654Z" fill="#FBAD18"/>
<rect x="72.3318" y="65.5488" width="1.52726" height="10.7249" fill="#FBAD18"/>
<rect x="31.8567" y="73.3281" width="1.52726" height="4.54868" fill="#FBAD18"/>
<rect x="31.8567" y="53.2207" width="1.52726" height="4.54817" fill="#FBAD18"/>
<rect x="18.0833" y="37.0059" width="1.52726" height="8.43554" fill="#FBAD18"/>
<path d="M27.672 37.7695H10.0215L13.1941 24.6836H24.4994L27.672 37.7695ZM11.9631 36.2422H25.7303L23.2985 26.2107H14.395L11.9631 36.2422Z" fill="#FBAD18"/>
</svg>
