<svg width="86" height="83" viewBox="0 0 86 83" fill="none" xmlns="http://www.w3.org/2000/svg">
<path d="M76.5828 5.63513H8.56177L0 0H85.1445L76.5828 5.63513ZM9.01892 4.10785H76.1246L80.046 1.52728H5.09802L9.01892 4.10785Z" fill="#FBAD18"/>
<path d="M44.4121 16.978H42.2979C36.7845 16.978 32.2989 12.493 32.2989 6.97961V4.1084H54.411V6.97961C54.411 12.493 49.9255 16.978 44.4121 16.978ZM33.8262 5.63562V6.97961C33.8262 11.6505 37.6265 15.4508 42.2979 15.4508H44.4121C49.0835 15.4508 52.8838 11.6505 52.8838 6.97961V5.63562H33.8262Z" fill="#FBAD18"/>
<path d="M42.5916 45.3154H44.1189V70.7967H42.5916V45.3154Z" fill="#FBAD18"/>
<path d="M42.5916 16.2148H44.1189V25.8366H42.5916V16.2148Z" fill="#FBAD18"/>
<path d="M43.3553 46.0792C40.4224 46.0792 38.1254 41.4653 38.1254 35.5757C38.1254 29.6857 40.4224 25.0723 43.3553 25.0723C46.2881 25.0723 48.5846 29.6857 48.5846 35.5757C48.5846 41.4653 46.2881 46.0792 43.3553 46.0792ZM43.3553 26.5995C41.6041 26.5995 39.6527 30.2859 39.6527 35.5757C39.6527 40.8651 41.6041 44.5519 43.3553 44.5519C45.106 44.5519 47.0573 40.8651 47.0573 35.5757C47.0573 30.2859 45.106 26.5995 43.3553 26.5995Z" fill="#FBAD18"/>
<path d="M54.7404 82.5273C48.0413 82.5273 42.5916 77.0776 42.5916 70.3785V70.1006H44.1188V70.3785C44.1188 76.2355 48.8834 81.0001 54.7404 81.0001C60.5974 81.0001 65.3625 76.2355 65.3625 70.3785V70.1006H66.8897V70.3785C66.8897 77.0776 61.4395 82.5273 54.7404 82.5273Z" fill="#FBAD18"/>
<path d="M31.9696 82.5273C25.2706 82.5273 19.8203 77.0776 19.8203 70.3785V70.1006H21.3475V70.3785C21.3475 76.2355 26.1126 81.0001 31.9696 81.0001C37.8266 81.0001 42.5916 76.2355 42.5916 70.3785V70.1006H44.1188V70.3785C44.1188 77.0776 38.6686 82.5273 31.9696 82.5273Z" fill="#FBAD18"/>
<path d="M66.9901 70.8644H63.8867C55.9913 70.8644 49.5681 64.4407 49.5681 56.5464V52.4238H81.308V56.5464C81.308 64.4407 74.8845 70.8644 66.9901 70.8644ZM51.0954 53.951V56.5464C51.0954 63.5988 56.8333 69.3372 63.8867 69.3372H66.9901C74.0424 69.3372 79.7808 63.5988 79.7808 56.5464V53.951H51.0954Z" fill="#FBAD18"/>
<path d="M22.1356 70.8644H19.0322C11.1373 70.8644 4.71417 64.4407 4.71417 56.5464V52.4238H36.4536V56.5464C36.4536 64.4407 30.0305 70.8644 22.1356 70.8644ZM6.24139 53.951V56.5464C6.24139 63.5988 11.9793 69.3372 19.0322 69.3372H22.1356C29.1874 69.3372 34.9263 63.5988 34.9263 56.5464V53.951H6.24139Z" fill="#FBAD18"/>
<path d="M13.1354 51.0654L11.7237 50.4836C13.2087 46.8808 16.6863 44.5527 20.5833 44.5527C24.3882 44.5527 27.8342 46.8054 29.3615 50.2911L27.9625 50.9041C26.6791 47.9738 23.7824 46.08 20.5833 46.08C17.3069 46.08 14.3842 48.0369 13.1354 51.0654Z" fill="#FBAD18"/>
<path d="M58.7159 51.066L57.3041 50.483C58.7897 46.8808 62.2678 44.5527 66.1643 44.5527C69.9687 44.5527 73.4147 46.8054 74.9424 50.2911L73.5435 50.9046C72.2596 47.9738 69.3624 46.08 66.1643 46.08C62.8884 46.08 59.9647 48.0369 58.7159 51.066Z" fill="#FBAD18"/>
</svg>
