<svg width="83" height="83" viewBox="0 0 83 83" fill="none" xmlns="http://www.w3.org/2000/svg">
<path d="M82.9483 43.0447H0V31.3164H82.9483V43.0447ZM1.52726 41.5175H81.4211V32.8436H1.52726V41.5175Z" fill="#FBAD18"/>
<path d="M13.2399 82.5274H4.72339V41.5176H13.2399V82.5274ZM6.25065 81.0001H11.7126V43.0448H6.25065V81.0001Z" fill="#FBAD18"/>
<path d="M78.2255 82.5274H69.709V41.5176H78.2255V82.5274ZM71.2357 81.0001H76.6977V43.0448H71.2357V81.0001Z" fill="#FBAD18"/>
<path d="M71.2359 56.4576H11.7126V41.5176H71.2359V56.4576ZM13.2399 54.9304H69.7087V43.0448H13.2399V54.9304Z" fill="#FBAD18"/>
<rect x="22.9348" y="48.2246" width="8.10413" height="1.52726" fill="#FBAD18"/>
<rect x="51.9395" y="48.2246" width="8.10413" height="1.52726" fill="#FBAD18"/>
<rect x="40.7104" y="42.2812" width="1.52726" height="13.4129" fill="#FBAD18"/>
<path d="M71.6679 32.8438H48.0947V21.3252H71.6679C74.8436 21.3252 77.4272 23.9088 77.4272 27.0845C77.4272 30.2601 74.8436 32.8438 71.6679 32.8438ZM49.622 31.3165H71.6679C74.0016 31.3165 75.8999 29.4181 75.8999 27.0845C75.8999 24.7513 74.0016 22.8525 71.6679 22.8525H49.622V31.3165Z" fill="#FBAD18"/>
<rect x="55.228" y="22.0889" width="1.52726" height="9.9913" fill="#FBAD18"/>
<path d="M72.4826 22.8526H48.9094C45.7343 22.8526 43.1501 20.269 43.1501 17.0933C43.1501 13.9176 45.7343 11.334 48.9094 11.334H72.4826V22.8526ZM48.9094 12.8613C46.5758 12.8613 44.6774 14.7596 44.6774 17.0933C44.6774 19.4269 46.5758 21.3253 48.9094 21.3253H70.9554V12.8613H48.9094Z" fill="#FBAD18"/>
<rect x="63.822" y="12.0977" width="1.52726" height="9.9913" fill="#FBAD18"/>
<path d="M27.1317 18.2828H5.48486L8.52971 0H24.0863L27.1317 18.2828ZM7.28754 16.7556H25.329L22.7928 1.52728H9.82329L7.28754 16.7556Z" fill="#FBAD18"/>
<rect x="15.5449" y="17.5195" width="1.52726" height="14.5609" fill="#FBAD18"/>
<rect x="23.1548" y="17.5195" width="1.52726" height="5.73078" fill="#FBAD18"/>
</svg>
