<svg width="91" height="90" viewBox="0 0 91 90" fill="none" xmlns="http://www.w3.org/2000/svg">
<path d="M86.9597 49.9077H3.29419V0H86.9597V49.9077ZM4.82178 48.3804H85.4329V1.52726H4.82178V48.3804Z" fill="#FBAD18"/>
<path d="M90.2546 81.6799H0V55.9619H90.2546V81.6799ZM1.52734 80.1526H88.7275V57.4892H1.52734V80.1526Z" fill="#FBAD18"/>
<rect x="27.4309" y="56.7256" width="1.52726" height="24.1907" fill="#FBAD18"/>
<rect x="60.7803" y="56.7256" width="1.52726" height="24.1907" fill="#FBAD18"/>
<rect x="28.1941" y="68.0576" width="33.3497" height="1.52726" fill="#FBAD18"/>
<rect x="69.791" y="61.9775" width="10.758" height="1.52726" fill="#FBAD18"/>
<rect x="9.36865" y="61.9775" width="10.7575" height="1.52726" fill="#FBAD18"/>
<rect x="56.2144" y="49.668" width="1.5271" height="8.63114" transform="rotate(-28.5424 56.2144 49.668)" fill="#FBAD18"/>
<rect x="82.0332" y="81.4404" width="1.5271" height="8.63114" transform="rotate(-28.5424 82.0332 81.4404)" fill="#FBAD18"/>
<rect x="33.3169" y="56.9463" width="8.63114" height="1.5271" transform="rotate(-61.4452 33.3169 56.9463)" fill="#FBAD18"/>
<rect x="7.49658" y="87.9463" width="8.63114" height="1.5271" transform="rotate(-61.4452 7.49658 87.9463)" fill="#FBAD18"/>
<rect x="10.6631" y="15.0752" width="12.607" height="1.5276" transform="rotate(-50.3693 10.6631 15.0752)" fill="#FBAD18"/>
<path d="M9.104 9.62012L12.9515 4.97432L14.1281 5.94868L10.2805 10.5945L9.104 9.62012Z" fill="#FBAD18"/>
</svg>
