<svg width="54" height="81" viewBox="0 0 54 81" fill="none" xmlns="http://www.w3.org/2000/svg">
<path d="M48.3389 37.574H3.26953V23.2402H48.3389V37.574ZM4.79688 36.0468H46.8115V24.7675H4.79688V36.0468Z" fill="#FBAD18"/>
<path d="M26.5671 55.108H25.04V47.8912L51.9778 44.0487V31.1708H47.5754V29.6436H53.5051V45.3733L26.5671 49.2159V55.108Z" fill="#FBAD18"/>
<path d="M31.1284 80.1814H21.0125V54.3438H31.1284V80.1814ZM22.5398 78.6541H29.6013V55.871H22.5398V78.6541Z" fill="#FBAD18"/>
<rect y="29.6436" width="4.03304" height="1.52726" fill="#FBAD18"/>
<path d="M14.7529 61.5847C12.6626 61.5847 10.9612 59.8833 10.9612 57.7925V51.2462C10.9612 50.8053 10.6016 50.4464 10.1604 50.4464C9.71997 50.4464 9.36108 50.8053 9.36108 51.2462V52.8258C9.36108 54.5054 7.99512 55.8717 6.31592 55.8717C4.63574 55.8717 3.2688 54.5054 3.2688 52.8258V41.2803H4.7959V52.8258C4.7959 53.6633 5.47778 54.3445 6.31592 54.3445C7.15332 54.3445 7.83398 53.6633 7.83398 52.8258V51.2462C7.83398 49.9633 8.87744 48.9191 10.1604 48.9191C11.4438 48.9191 12.4883 49.9633 12.4883 51.2462V57.7925C12.4883 59.0413 13.5046 60.0574 14.7529 60.0574C16.0017 60.0574 17.0176 59.0413 17.0176 57.7925V44.7976H18.5449V57.7925C18.5449 59.8833 16.8438 61.5847 14.7529 61.5847Z" fill="#FBAD18"/>
<rect x="3.26953" width="1.52726" height="20.6424" fill="#FBAD18"/>
<rect x="10.1436" width="1.52726" height="15.1259" fill="#FBAD18"/>
<rect x="16.5972" y="14.4141" width="1.52726" height="6.22816" fill="#FBAD18"/>
<rect x="46.8115" width="1.52726" height="20.6424" fill="#FBAD18"/>
</svg>
