<svg width="91" height="92" viewBox="0 0 91 92" fill="none" xmlns="http://www.w3.org/2000/svg">
<path d="M90.7715 91.1678H0V0.396484H90.7715V91.1678ZM1.52726 89.6407H89.2442V1.92371H1.52726V89.6407Z" fill="#FBAD18"/>
<rect x="47.4351" y="1.16016" width="1.52726" height="89.2442" fill="#FBAD18"/>
<rect x="48.1987" y="42.9785" width="41.8091" height="1.52726" fill="#FBAD18"/>
<rect x="48.1987" y="66.2129" width="41.8091" height="1.52726" fill="#FBAD18"/>
<rect x="48.1987" y="78.418" width="41.8091" height="1.52726" fill="#FBAD18"/>
<rect x="54.0022" y="54.0098" width="36.0056" height="1.52726" fill="#FBAD18"/>
<path d="M65.3655 44.5427H54.467V34.7474C54.467 33.1403 55.7749 31.832 57.3826 31.832H62.4505C64.0577 31.832 65.3655 33.1403 65.3655 34.7474V44.5427ZM55.9943 43.0155H63.8383V34.7474C63.8383 33.9817 63.2162 33.3591 62.4505 33.3591H57.3826C56.6169 33.3591 55.9943 33.9817 55.9943 34.7474V43.0155Z" fill="#FBAD18"/>
<path d="M84.2195 44.4496H70.4192V34.6539C70.4192 33.0468 71.727 31.7383 73.3352 31.7383H81.3045C82.9116 31.7383 84.2195 33.0468 84.2195 34.6539V44.4496ZM71.9465 42.9225H82.6922V34.6539C82.6922 33.8882 82.0701 33.2655 81.3045 33.2655H73.3352C72.5696 33.2655 71.9465 33.8882 71.9465 34.6539V42.9225Z" fill="#FBAD18"/>
<path d="M81.2577 33.266H72.8665V29.2178C72.8665 27.4905 74.2715 26.0859 75.9983 26.0859H78.1253C79.8526 26.0859 81.2577 27.4905 81.2577 29.2178V33.266ZM74.3937 31.7388H79.7305V29.2178C79.7305 28.333 79.0101 27.613 78.1253 27.613H75.9983C75.1136 27.613 74.3937 28.333 74.3937 29.2178V31.7388Z" fill="#FBAD18"/>
<path d="M60.6801 32.5029H59.1528V26.4092H64.989V27.9365H60.6801V32.5029Z" fill="#FBAD18"/>
<rect x="80.6692" y="13.2939" width="15.8538" height="1.52755" transform="rotate(-56.9827 80.6692 13.2939)" fill="#FBAD18"/>
<rect x="63.2559" y="14.8867" width="15.8533" height="1.52755" transform="rotate(-56.9826 63.2559 14.8867)" fill="#FBAD18"/>
<rect x="24.3132" y="50.5107" width="39.1116" height="1.52734" transform="rotate(-56.9826 24.3132 50.5107)" fill="#FBAD18"/>
<rect x="33.5142" y="59.3594" width="21.1064" height="1.52741" transform="rotate(-56.9826 33.5142 59.3594)" fill="#FBAD18"/>
<path d="M24.0584 15.7194H0V7.54492H24.0584V15.7194ZM1.52726 14.192H22.5311V9.07214H1.52726V14.192Z" fill="#FBAD18"/>
<path d="M24.0584 20.7744H16.4165V14.1924H24.0584V20.7744ZM17.9438 19.2471H22.5311V15.7197H17.9438V19.2471Z" fill="#FBAD18"/>
<path d="M34.5548 26.9241H11.2656V19.2471H34.5548V26.9241ZM12.7929 25.3969H33.0275V20.7744H12.7929V25.3969Z" fill="#FBAD18"/>
<path d="M10.3438 56.132H0.000244141V35.1913H1.5275V54.6047H8.81659V35.9548H5.17204V34.4277H10.3438V56.132Z" fill="#FBAD18"/>
</svg>
