<svg width="87" height="102" viewBox="0 0 87 102" fill="none" xmlns="http://www.w3.org/2000/svg">
<path d="M86.2432 48.2909H0V37.2148H86.2432V48.2909ZM1.52673 46.7637H84.7155V38.7419H1.52673V46.7637Z" fill="#FBAD18"/>
<path d="M86.2432 101.926H0V92.0332H86.2432V101.926ZM1.52673 100.399H84.7155V93.5604H1.52673V100.399Z" fill="#FBAD18"/>
<path d="M20.8669 93.5605H3.75V83.668H20.8669V93.5605ZM5.27722 92.0332H19.3397V85.1953H5.27722V92.0332Z" fill="#FBAD18"/>
<path d="M83.0632 93.5605H65.9463V83.668H83.0632V93.5605ZM67.4735 92.0332H81.536V85.1953H67.4735V92.0332Z" fill="#FBAD18"/>
<path d="M20.8669 56.7172H3.75V46.8242H20.8669V56.7172ZM5.27722 55.1899H19.3397V48.3513H5.27722V55.1899Z" fill="#FBAD18"/>
<path d="M83.0632 56.7172H65.9463V46.8242H83.0632V56.7172ZM67.4735 55.1899H81.536V48.3513H67.4735V55.1899Z" fill="#FBAD18"/>
<path d="M78.2043 38.7422H8.03906V27.666H78.2043V38.7422ZM9.56635 37.2148H76.677V29.1931H9.56635V37.2148Z" fill="#FBAD18"/>
<path d="M18.6914 85.1954H5.77441V55.1904H18.6914V85.1954ZM7.3017 83.6682H17.1642V56.7178H7.3017V83.6682Z" fill="#FBAD18"/>
<path d="M80.9634 85.1954H68.0464V55.1904H80.9634V85.1954ZM69.5736 83.6682H79.4362V56.7178H69.5736V83.6682Z" fill="#FBAD18"/>
<path d="M61.0056 29.1925H25.2373L38.4028 17.4199L39.421 18.5583L29.2367 27.6653H57.0068L46.8225 18.5583L47.8407 17.4199L61.0056 29.1925Z" fill="#FBAD18"/>
<path d="M43.1216 20.6362C39.5865 20.6362 36.7102 17.76 36.7102 14.2249C36.7102 10.6893 39.5865 7.81348 43.1216 7.81348C46.6566 7.81348 49.533 10.6893 49.533 14.2249C49.533 17.76 46.6566 20.6362 43.1216 20.6362ZM43.1216 9.34082C40.4285 9.34082 38.2374 11.5319 38.2374 14.2249C38.2374 16.9185 40.4285 19.1091 43.1216 19.1091C45.8146 19.1091 48.0057 16.9185 48.0057 14.2249C48.0057 11.5319 45.8146 9.34082 43.1216 9.34082Z" fill="#FBAD18"/>
<path d="M47.7182 10.22L46.2138 9.95618C47.0564 5.14734 44.1902 2.57141 43.1216 1.79407C42.0546 2.56995 39.1865 5.14587 40.029 9.95618L38.5246 10.22C37.901 6.65833 39.0719 4.13171 40.1639 2.63916C41.347 1.02185 42.6869 0.247437 42.7439 0.215454L43.1216 0L43.4994 0.215454C43.5533 0.24646 48.9156 3.38708 47.7182 10.22Z" fill="#FBAD18"/>
<path d="M44.5306 93.5596C36.2703 93.5596 29.5498 87.9829 29.5498 81.1282V78.3826L30.314 78.3832H30.343C34.8937 78.3832 40.5547 78.009 44.0496 75.1199L44.6223 74.6465L45.1116 75.2059C47.2619 77.6664 53.543 78.1968 58.7749 78.3838L59.5115 78.4102V81.1282C59.5115 87.9829 52.7905 93.5596 44.5306 93.5596ZM31.077 79.9069V81.1282C31.077 87.1409 37.1123 92.0322 44.5306 92.0322C51.9485 92.0322 57.9843 87.1409 57.9843 81.1282V79.8815C52.6821 79.6609 47.1453 79.0603 44.4741 76.722C40.8057 79.3856 35.5209 79.8635 31.077 79.9069Z" fill="#FBAD18"/>
<path d="M30.5767 84.1257L30.5715 82.5985C37.1897 82.5767 41.3469 81.5701 44.0501 79.3358L44.6228 78.8623L45.1116 79.4219C47.2431 81.8604 53.3964 82.396 58.5188 82.5894L58.4608 84.1156C53.0558 83.9109 47.2416 83.3633 44.4747 80.9379C40.6392 83.7241 35.0673 84.1111 30.5767 84.1257Z" fill="#FBAD18"/>
<path d="M44.6426 76.4405C44.462 76.4405 44.2823 76.3931 44.1224 76.3C41.2847 74.6485 38.4654 71.1114 39.8675 66.5831C40.1133 65.7874 40.3547 65.0391 40.5812 64.3333C41.7398 60.7342 42.505 58.3572 41.7419 56.8601C41.523 56.432 41.6258 55.9162 41.9919 55.6052C42.3584 55.2946 42.8843 55.2784 43.2707 55.5629C46.3847 57.8543 50.5562 64.5493 50.0033 69.8239C49.6949 72.7695 47.9889 75.0257 45.0697 76.3483C44.9333 76.41 44.7878 76.4405 44.6426 76.4405ZM43.5599 57.8599C43.6952 59.6442 42.9851 61.8492 42.0357 64.8013C41.8096 65.5018 41.5708 66.2449 41.326 67.0341C39.9616 71.4449 43.4931 74.1028 44.6737 74.8476C46.9585 73.7388 48.2398 71.9966 48.4847 69.6646C48.9063 65.6408 46.1083 60.5041 43.5599 57.8599Z" fill="#FBAD18"/>
<rect x="47.3896" y="73.6016" width="5.66586" height="1.52775" transform="rotate(-88.5488 47.3896 73.6016)" fill="#FBAD18"/>
</svg>
